0
SECTION
2
HEADER
9
$ACADVER
1
AC1003
9
$EXTMIN
10
0.000000
20
0.000000
9
$EXTMAX
10
1406.000000
20
1283.000000
9
$LIMMIN
10
0.000000
20
0.000000
9
$LIMMAX
10
1406.000000
20
1283.000000
0
ENDSEC
0
SECTION
2
TABLES
0
TABLE
2
LAYER
70
1
0
LAYER
2
0
70
64
62
3
6
CONTINUOUS
0
ENDTAB
0
ENDSEC
0
SECTION
2
BLOCKS
0
ENDSEC
0
SECTION
2
ENTITIES
0
POLYLINE
8
0
6
CONTINUOUS
66
1
10
0.0
20
0.0
30
0.000000
0
VERTEX
8
0
10
695.000000
20
1147.000000
30
0.000000
0
VERTEX
8
0
10
700.000000
20
1147.000000
30
0.000000
0
VERTEX
8
0
10
702.000000
20
1145.000000
30
0.000000
0
VERTEX
8
0
10
702.000000
20
904.000000
30
0.000000
0
VERTEX
8
0
10
704.000000
20
902.000000
30
0.000000
0
VERTEX
8
0
10
761.000000
20
902.000000
30
0.000000
0
VERTEX
8
0
10
761.000000
20
880.000000
30
0.000000
0
VERTEX
8
0
10
764.000000
20
877.000000
30
0.000000
0
VERTEX
8
0
10
828.000000
20
877.000000
30
0.000000
0
VERTEX
8
0
10
829.000000
20
846.000000
30
0.000000
0
VERTEX
8
0
10
831.000000
20
844.000000
30
0.000000
0
VERTEX
8
0
10
862.000000
20
845.000000
30
0.000000
0
VERTEX
8
0
10
864.000000
20
843.000000
30
0.000000
0
VERTEX
8
0
10
864.000000
20
817.000000
30
0.000000
0
VERTEX
8
0
10
849.000000
20
815.000000
30
0.000000
0
VERTEX
8
0
10
849.000000
20
805.000000
30
0.000000
0
VERTEX
8
0
10
1001.000000
20
805.000000
30
0.000000
0
VERTEX
8
0
10
1002.000000
20
776.000000
30
0.000000
0
VERTEX
8
0
10
995.000000
20
776.000000
30
0.000000
0
VERTEX
8
0
10
993.000000
20
774.000000
30
0.000000
0
VERTEX
8
0
10
993.000000
20
753.000000
30
0.000000
0
VERTEX
8
0
10
995.000000
20
751.000000
30
0.000000
0
VERTEX
8
0
10
1362.000000
20
751.000000
30
0.000000
0
VERTEX
8
0
10
1363.000000
20
725.000000
30
0.000000
0
VERTEX
8
0
10
1361.000000
20
722.000000
30
0.000000
0
VERTEX
8
0
10
1351.000000
20
722.000000
30
0.000000
0
VERTEX
8
0
10
1349.000000
20
720.000000
30
0.000000
0
VERTEX
8
0
10
1349.000000
20
674.000000
30
0.000000
0
VERTEX
8
0
10
1353.000000
20
671.000000
30
0.000000
0
VERTEX
8
0
10
1381.000000
20
671.000000
30
0.000000
0
VERTEX
8
0
10
1382.000000
20
648.000000
30
0.000000
0
VERTEX
8
0
10
1380.000000
20
646.000000
30
0.000000
0
VERTEX
8
0
10
1351.000000
20
647.000000
30
0.000000
0
VERTEX
8
0
10
1349.000000
20
645.000000
30
0.000000
0
VERTEX
8
0
10
1349.000000
20
60.000000
30
0.000000
0
VERTEX
8
0
10
1168.000000
20
60.000000
30
0.000000
0
VERTEX
8
0
10
1168.000000
20
312.000000
30
0.000000
0
VERTEX
8
0
10
1165.000000
20
322.000000
30
0.000000
0
VERTEX
8
0
10
1158.000000
20
334.000000
30
0.000000
0
VERTEX
8
0
10
1143.000000
20
348.000000
30
0.000000
0
VERTEX
8
0
10
1128.000000
20
356.000000
30
0.000000
0
VERTEX
8
0
10
1119.000000
20
359.000000
30
0.000000
0
VERTEX
8
0
10
1115.000000
20
358.000000
30
0.000000
0
VERTEX
8
0
10
1115.000000
20
340.000000
30
0.000000
0
VERTEX
8
0
10
1111.000000
20
338.000000
30
0.000000
0
VERTEX
8
0
10
1078.000000
20
339.000000
30
0.000000
0
VERTEX
8
0
10
1077.000000
20
359.000000
30
0.000000
0
VERTEX
8
0
10
1058.000000
20
353.000000
30
0.000000
0
VERTEX
8
0
10
1040.000000
20
340.000000
30
0.000000
0
VERTEX
8
0
10
1030.000000
20
327.000000
30
0.000000
0
VERTEX
8
0
10
1026.000000
20
317.000000
30
0.000000
0
VERTEX
8
0
10
1024.000000
20
305.000000
30
0.000000
0
VERTEX
8
0
10
1025.000000
20
63.000000
30
0.000000
0
VERTEX
8
0
10
1023.000000
20
59.000000
30
0.000000
0
VERTEX
8
0
10
796.000000
20
60.000000
30
0.000000
0
VERTEX
8
0
10
796.000000
20
341.000000
30
0.000000
0
VERTEX
8
0
10
791.000000
20
361.000000
30
0.000000
0
VERTEX
8
0
10
777.000000
20
383.000000
30
0.000000
0
VERTEX
8
0
10
767.000000
20
393.000000
30
0.000000
0
VERTEX
8
0
10
756.000000
20
401.000000
30
0.000000
0
VERTEX
8
0
10
736.000000
20
411.000000
30
0.000000
0
VERTEX
8
0
10
717.000000
20
416.000000
30
0.000000
0
VERTEX
8
0
10
715.000000
20
414.000000
30
0.000000
0
VERTEX
8
0
10
715.000000
20
394.000000
30
0.000000
0
VERTEX
8
0
10
713.000000
20
392.000000
30
0.000000
0
VERTEX
8
0
10
680.000000
20
392.000000
30
0.000000
0
VERTEX
8
0
10
678.000000
20
393.000000
30
0.000000
0
VERTEX
8
0
10
678.000000
20
414.000000
30
0.000000
0
VERTEX
8
0
10
675.000000
20
416.000000
30
0.000000
0
VERTEX
8
0
10
650.000000
20
408.000000
30
0.000000
0
VERTEX
8
0
10
630.000000
20
396.000000
30
0.000000
0
VERTEX
8
0
10
617.000000
20
384.000000
30
0.000000
0
VERTEX
8
0
10
604.000000
20
365.000000
30
0.000000
0
VERTEX
8
0
10
597.000000
20
342.000000
30
0.000000
0
VERTEX
8
0
10
597.000000
20
91.000000
30
0.000000
0
VERTEX
8
0
10
595.000000
20
59.000000
30
0.000000
0
VERTEX
8
0
10
374.000000
20
60.000000
30
0.000000
0
VERTEX
8
0
10
374.000000
20
311.000000
30
0.000000
0
VERTEX
8
0
10
368.000000
20
328.000000
30
0.000000
0
VERTEX
8
0
10
363.000000
20
335.000000
30
0.000000
0
VERTEX
8
0
10
346.000000
20
350.000000
30
0.000000
0
VERTEX
8
0
10
334.000000
20
356.000000
30
0.000000
0
VERTEX
8
0
10
320.000000
20
360.000000
30
0.000000
0
VERTEX
8
0
10
318.000000
20
358.000000
30
0.000000
0
VERTEX
8
0
10
318.000000
20
340.000000
30
0.000000
0
VERTEX
8
0
10
316.000000
20
338.000000
30
0.000000
0
VERTEX
8
0
10
283.000000
20
338.000000
30
0.000000
0
VERTEX
8
0
10
281.000000
20
340.000000
30
0.000000
0
VERTEX
8
0
10
280.000000
20
358.000000
30
0.000000
0
VERTEX
8
0
10
271.000000
20
356.000000
30
0.000000
0
VERTEX
8
0
10
259.000000
20
350.000000
30
0.000000
0
VERTEX
8
0
10
248.000000
20
342.000000
30
0.000000
0
VERTEX
8
0
10
241.000000
20
334.000000
30
0.000000
0
VERTEX
8
0
10
233.000000
20
320.000000
30
0.000000
0
VERTEX
8
0
10
231.000000
20
313.000000
30
0.000000
0
VERTEX
8
0
10
230.000000
20
61.000000
30
0.000000
0
VERTEX
8
0
10
228.000000
20
59.000000
30
0.000000
0
VERTEX
8
0
10
32.000000
20
60.000000
30
0.000000
0
VERTEX
8
0
10
32.000000
20
644.000000
30
0.000000
0
VERTEX
8
0
10
30.000000
20
647.000000
30
0.000000
0
VERTEX
8
0
10
20.000000
20
647.000000
30
0.000000
0
VERTEX
8
0
10
19.000000
20
670.000000
30
0.000000
0
VERTEX
8
0
10
41.000000
20
672.000000
30
0.000000
0
VERTEX
8
0
10
43.000000
20
671.000000
30
0.000000
0
VERTEX
8
0
10
46.000000
20
673.000000
30
0.000000
0
VERTEX
8
0
10
46.000000
20
720.000000
30
0.000000
0
VERTEX
8
0
10
42.000000
20
723.000000
30
0.000000
0
VERTEX
8
0
10
32.000000
20
723.000000
30
0.000000
0
VERTEX
8
0
10
32.000000
20
751.000000
30
0.000000
0
VERTEX
8
0
10
399.000000
20
751.000000
30
0.000000
0
VERTEX
8
0
10
402.000000
20
753.000000
30
0.000000
0
VERTEX
8
0
10
402.000000
20
773.000000
30
0.000000
0
VERTEX
8
0
10
399.000000
20
776.000000
30
0.000000
0
VERTEX
8
0
10
396.000000
20
775.000000
30
0.000000
0
VERTEX
8
0
10
392.000000
20
778.000000
30
0.000000
0
VERTEX
8
0
10
392.000000
20
803.000000
30
0.000000
0
VERTEX
8
0
10
396.000000
20
805.000000
30
0.000000
0
VERTEX
8
0
10
546.000000
20
805.000000
30
0.000000
0
VERTEX
8
0
10
547.000000
20
813.000000
30
0.000000
0
VERTEX
8
0
10
544.000000
20
816.000000
30
0.000000
0
VERTEX
8
0
10
531.000000
20
816.000000
30
0.000000
0
VERTEX
8
0
10
531.000000
20
844.000000
30
0.000000
0
VERTEX
8
0
10
564.000000
20
845.000000
30
0.000000
0
VERTEX
8
0
10
566.000000
20
847.000000
30
0.000000
0
VERTEX
8
0
10
567.000000
20
877.000000
30
0.000000
0
VERTEX
8
0
10
631.000000
20
877.000000
30
0.000000
0
VERTEX
8
0
10
633.000000
20
879.000000
30
0.000000
0
VERTEX
8
0
10
633.000000
20
902.000000
30
0.000000
0
VERTEX
8
0
10
691.000000
20
902.000000
30
0.000000
0
VERTEX
8
0
10
693.000000
20
904.000000
30
0.000000
0
VERTEX
8
0
10
693.000000
20
1146.000000
30
0.000000
0
VERTEX
8
0
10
695.000000
20
1147.000000
30
0.000000
0
SEQEND
0
POLYLINE
8
0
6
CONTINUOUS
66
1
10
0.0
20
0.0
30
0.000000
0
VERTEX
8
0
10
751.000000
20
893.000000
30
0.000000
0
VERTEX
8
0
10
749.000000
20
894.000000
30
0.000000
0
VERTEX
8
0
10
643.000000
20
893.000000
30
0.000000
0
VERTEX
8
0
10
642.000000
20
870.000000
30
0.000000
0
VERTEX
8
0
10
640.000000
20
868.000000
30
0.000000
0
VERTEX
8
0
10
576.000000
20
868.000000
30
0.000000
0
VERTEX
8
0
10
574.000000
20
865.000000
30
0.000000
0
VERTEX
8
0
10
574.000000
20
848.000000
30
0.000000
0
VERTEX
8
0
10
577.000000
20
844.000000
30
0.000000
0
VERTEX
8
0
10
817.000000
20
844.000000
30
0.000000
0
VERTEX
8
0
10
820.000000
20
846.000000
30
0.000000
0
VERTEX
8
0
10
819.000000
20
868.000000
30
0.000000
0
VERTEX
8
0
10
755.000000
20
868.000000
30
0.000000
0
VERTEX
8
0
10
753.000000
20
869.000000
30
0.000000
0
VERTEX
8
0
10
753.000000
20
891.000000
30
0.000000
0
VERTEX
8
0
10
751.000000
20
893.000000
30
0.000000
0
SEQEND
0
POLYLINE
8
0
6
CONTINUOUS
66
1
10
0.0
20
0.0
30
0.000000
0
VERTEX
8
0
10
545.000000
20
835.000000
30
0.000000
0
VERTEX
8
0
10
544.000000
20
836.000000
30
0.000000
0
VERTEX
8
0
10
541.000000
20
836.000000
30
0.000000
0
VERTEX
8
0
10
539.000000
20
833.000000
30
0.000000
0
VERTEX
8
0
10
539.000000
20
827.000000
30
0.000000
0
VERTEX
8
0
10
542.000000
20
824.000000
30
0.000000
0
VERTEX
8
0
10
852.000000
20
824.000000
30
0.000000
0
VERTEX
8
0
10
855.000000
20
826.000000
30
0.000000
0
VERTEX
8
0
10
855.000000
20
834.000000
30
0.000000
0
VERTEX
8
0
10
853.000000
20
836.000000
30
0.000000
0
VERTEX
8
0
10
545.000000
20
835.000000
30
0.000000
0
SEQEND
0
POLYLINE
8
0
6
CONTINUOUS
66
1
10
0.0
20
0.0
30
0.000000
0
VERTEX
8
0
10
567.000000
20
815.000000
30
0.000000
0
VERTEX
8
0
10
566.000000
20
816.000000
30
0.000000
0
VERTEX
8
0
10
557.000000
20
815.000000
30
0.000000
0
VERTEX
8
0
10
555.000000
20
813.000000
30
0.000000
0
VERTEX
8
0
10
555.000000
20
786.000000
30
0.000000
0
VERTEX
8
0
10
559.000000
20
782.000000
30
0.000000
0
VERTEX
8
0
10
836.000000
20
782.000000
30
0.000000
0
VERTEX
8
0
10
839.000000
20
784.000000
30
0.000000
0
VERTEX
8
0
10
839.000000
20
814.000000
30
0.000000
0
VERTEX
8
0
10
837.000000
20
816.000000
30
0.000000
0
VERTEX
8
0
10
567.000000
20
815.000000
30
0.000000
0
SEQEND
0
POLYLINE
8
0
6
CONTINUOUS
66
1
10
0.0
20
0.0
30
0.000000
0
VERTEX
8
0
10
545.000000
20
795.000000
30
0.000000
0
VERTEX
8
0
10
544.000000
20
796.000000
30
0.000000
0
VERTEX
8
0
10
403.000000
20
796.000000
30
0.000000
0
VERTEX
8
0
10
401.000000
20
794.000000
30
0.000000
0
VERTEX
8
0
10
401.000000
20
786.000000
30
0.000000
0
VERTEX
8
0
10
403.000000
20
784.000000
30
0.000000
0
VERTEX
8
0
10
544.000000
20
784.000000
30
0.000000
0
VERTEX
8
0
10
546.000000
20
786.000000
30
0.000000
0
VERTEX
8
0
10
545.000000
20
795.000000
30
0.000000
0
SEQEND
0
POLYLINE
8
0
6
CONTINUOUS
66
1
10
0.0
20
0.0
30
0.000000
0
VERTEX
8
0
10
992.000000
20
795.000000
30
0.000000
0
VERTEX
8
0
10
991.000000
20
796.000000
30
0.000000
0
VERTEX
8
0
10
850.000000
20
796.000000
30
0.000000
0
VERTEX
8
0
10
848.000000
20
794.000000
30
0.000000
0
VERTEX
8
0
10
848.000000
20
787.000000
30
0.000000
0
VERTEX
8
0
10
851.000000
20
784.000000
30
0.000000
0
VERTEX
8
0
10
991.000000
20
784.000000
30
0.000000
0
VERTEX
8
0
10
993.000000
20
786.000000
30
0.000000
0
VERTEX
8
0
10
994.000000
20
793.000000
30
0.000000
0
VERTEX
8
0
10
992.000000
20
795.000000
30
0.000000
0
SEQEND
0
POLYLINE
8
0
6
CONTINUOUS
66
1
10
0.0
20
0.0
30
0.000000
0
VERTEX
8
0
10
838.000000
20
776.000000
30
0.000000
0
VERTEX
8
0
10
837.000000
20
777.000000
30
0.000000
0
VERTEX
8
0
10
557.000000
20
777.000000
30
0.000000
0
VERTEX
8
0
10
554.000000
20
775.000000
30
0.000000
0
VERTEX
8
0
10
413.000000
20
775.000000
30
0.000000
0
VERTEX
8
0
10
411.000000
20
773.000000
30
0.000000
0
VERTEX
8
0
10
411.000000
20
725.000000
30
0.000000
0
VERTEX
8
0
10
408.000000
20
720.000000
30
0.000000
0
VERTEX
8
0
10
409.000000
20
672.000000
30
0.000000
0
VERTEX
8
0
10
986.000000
20
673.000000
30
0.000000
0
VERTEX
8
0
10
986.000000
20
721.000000
30
0.000000
0
VERTEX
8
0
10
984.000000
20
724.000000
30
0.000000
0
VERTEX
8
0
10
983.000000
20
775.000000
30
0.000000
0
VERTEX
8
0
10
838.000000
20
776.000000
30
0.000000
0
SEQEND
0
POLYLINE
8
0
6
CONTINUOUS
66
1
10
0.0
20
0.0
30
0.000000
0
VERTEX
8
0
10
483.000000
20
759.000000
30
0.000000
0
VERTEX
8
0
10
487.000000
20
759.000000
30
0.000000
0
VERTEX
8
0
10
544.000000
20
759.000000
30
0.000000
0
VERTEX
8
0
10
548.000000
20
757.000000
30
0.000000
0
VERTEX
8
0
10
548.000000
20
692.000000
30
0.000000
0
VERTEX
8
0
10
546.000000
20
690.000000
30
0.000000
0
VERTEX
8
0
10
481.000000
20
690.000000
30
0.000000
0
VERTEX
8
0
10
479.000000
20
692.000000
30
0.000000
0
VERTEX
8
0
10
479.000000
20
756.000000
30
0.000000
0
VERTEX
8
0
10
483.000000
20
759.000000
30
0.000000
0
SEQEND
0
POLYLINE
8
0
6
CONTINUOUS
66
1
10
0.0
20
0.0
30
0.000000
0
VERTEX
8
0
10
669.000000
20
759.000000
30
0.000000
0
VERTEX
8
0
10
731.000000
20
759.000000
30
0.000000
0
VERTEX
8
0
10
734.000000
20
758.000000
30
0.000000
0
VERTEX
8
0
10
735.000000
20
695.000000
30
0.000000
0
VERTEX
8
0
10
733.000000
20
690.000000
30
0.000000
0
VERTEX
8
0
10
666.000000
20
691.000000
30
0.000000
0
VERTEX
8
0
10
666.000000
20
757.000000
30
0.000000
0
VERTEX
8
0
10
669.000000
20
759.000000
30
0.000000
0
SEQEND
0
POLYLINE
8
0
6
CONTINUOUS
66
1
10
0.0
20
0.0
30
0.000000
0
VERTEX
8
0
10
855.000000
20
759.000000
30
0.000000
0
VERTEX
8
0
10
857.000000
20
758.000000
30
0.000000
0
VERTEX
8
0
10
918.000000
20
758.000000
30
0.000000
0
VERTEX
8
0
10
918.000000
20
691.000000
30
0.000000
0
VERTEX
8
0
10
850.000000
20
691.000000
30
0.000000
0
VERTEX
8
0
10
850.000000
20
758.000000
30
0.000000
0
VERTEX
8
0
10
855.000000
20
759.000000
30
0.000000
0
SEQEND
0
POLYLINE
8
0
6
CONTINUOUS
66
1
10
0.0
20
0.0
30
0.000000
0
VERTEX
8
0
10
542.000000
20
753.000000
30
0.000000
0
VERTEX
8
0
10
541.000000
20
754.000000
30
0.000000
0
VERTEX
8
0
10
486.000000
20
754.000000
30
0.000000
0
VERTEX
8
0
10
484.000000
20
752.000000
30
0.000000
0
VERTEX
8
0
10
484.000000
20
696.000000
30
0.000000
0
VERTEX
8
0
10
487.000000
20
694.000000
30
0.000000
0
VERTEX
8
0
10
540.000000
20
694.000000
30
0.000000
0
VERTEX
8
0
10
543.000000
20
696.000000
30
0.000000
0
VERTEX
8
0
10
542.000000
20
753.000000
30
0.000000
0
SEQEND
0
POLYLINE
8
0
6
CONTINUOUS
66
1
10
0.0
20
0.0
30
0.000000
0
VERTEX
8
0
10
729.000000
20
753.000000
30
0.000000
0
VERTEX
8
0
10
728.000000
20
754.000000
30
0.000000
0
VERTEX
8
0
10
671.000000
20
753.000000
30
0.000000
0
VERTEX
8
0
10
670.000000
20
697.000000
30
0.000000
0
VERTEX
8
0
10
673.000000
20
694.000000
30
0.000000
0
VERTEX
8
0
10
727.000000
20
694.000000
30
0.000000
0
VERTEX
8
0
10
730.000000
20
696.000000
30
0.000000
0
VERTEX
8
0
10
729.000000
20
753.000000
30
0.000000
0
SEQEND
0
POLYLINE
8
0
6
CONTINUOUS
66
1
10
0.0
20
0.0
30
0.000000
0
VERTEX
8
0
10
913.000000
20
753.000000
30
0.000000
0
VERTEX
8
0
10
912.000000
20
754.000000
30
0.000000
0
VERTEX
8
0
10
855.000000
20
753.000000
30
0.000000
0
VERTEX
8
0
10
854.000000
20
697.000000
30
0.000000
0
VERTEX
8
0
10
857.000000
20
694.000000
30
0.000000
0
VERTEX
8
0
10
911.000000
20
694.000000
30
0.000000
0
VERTEX
8
0
10
914.000000
20
696.000000
30
0.000000
0
VERTEX
8
0
10
913.000000
20
753.000000
30
0.000000
0
SEQEND
0
POLYLINE
8
0
6
CONTINUOUS
66
1
10
0.0
20
0.0
30
0.000000
0
VERTEX
8
0
10
53.000000
20
742.000000
30
0.000000
0
VERTEX
8
0
10
52.000000
20
743.000000
30
0.000000
0
VERTEX
8
0
10
44.000000
20
743.000000
30
0.000000
0
VERTEX
8
0
10
41.000000
20
739.000000
30
0.000000
0
VERTEX
8
0
10
41.000000
20
734.000000
30
0.000000
0
VERTEX
8
0
10
44.000000
20
731.000000
30
0.000000
0
VERTEX
8
0
10
400.000000
20
731.000000
30
0.000000
0
VERTEX
8
0
10
402.000000
20
733.000000
30
0.000000
0
VERTEX
8
0
10
402.000000
20
740.000000
30
0.000000
0
VERTEX
8
0
10
400.000000
20
743.000000
30
0.000000
0
VERTEX
8
0
10
53.000000
20
742.000000
30
0.000000
0
SEQEND
0
POLYLINE
8
0
6
CONTINUOUS
66
1
10
0.0
20
0.0
30
0.000000
0
VERTEX
8
0
10
1002.000000
20
742.000000
30
0.000000
0
VERTEX
8
0
10
1001.000000
20
743.000000
30
0.000000
0
VERTEX
8
0
10
995.000000
20
743.000000
30
0.000000
0
VERTEX
8
0
10
993.000000
20
741.000000
30
0.000000
0
VERTEX
8
0
10
993.000000
20
733.000000
30
0.000000
0
VERTEX
8
0
10
995.000000
20
731.000000
30
0.000000
0
VERTEX
8
0
10
1352.000000
20
731.000000
30
0.000000
0
VERTEX
8
0
10
1354.000000
20
733.000000
30
0.000000
0
VERTEX
8
0
10
1354.000000
20
739.000000
30
0.000000
0
VERTEX
8
0
10
1351.000000
20
743.000000
30
0.000000
0
VERTEX
8
0
10
1002.000000
20
742.000000
30
0.000000
0
SEQEND
0
POLYLINE
8
0
6
CONTINUOUS
66
1
10
0.0
20
0.0
30
0.000000
0
VERTEX
8
0
10
398.000000
20
722.000000
30
0.000000
0
VERTEX
8
0
10
396.000000
20
723.000000
30
0.000000
0
VERTEX
8
0
10
56.000000
20
722.000000
30
0.000000
0
VERTEX
8
0
10
54.000000
20
719.000000
30
0.000000
0
VERTEX
8
0
10
54.000000
20
674.000000
30
0.000000
0
VERTEX
8
0
10
56.000000
20
672.000000
30
0.000000
0
VERTEX
8
0
10
402.000000
20
672.000000
30
0.000000
0
VERTEX
8
0
10
404.000000
20
674.000000
30
0.000000
0
VERTEX
8
0
10
403.000000
20
721.000000
30
0.000000
0
VERTEX
8
0
10
398.000000
20
722.000000
30
0.000000
0
SEQEND
0
POLYLINE
8
0
6
CONTINUOUS
66
1
10
0.0
20
0.0
30
0.000000
0
VERTEX
8
0
10
999.000000
20
722.000000
30
0.000000
0
VERTEX
8
0
10
998.000000
20
723.000000
30
0.000000
0
VERTEX
8
0
10
991.000000
20
721.000000
30
0.000000
0
VERTEX
8
0
10
992.000000
20
672.000000
30
0.000000
0
VERTEX
8
0
10
1339.000000
20
672.000000
30
0.000000
0
VERTEX
8
0
10
1341.000000
20
674.000000
30
0.000000
0
VERTEX
8
0
10
1341.000000
20
720.000000
30
0.000000
0
VERTEX
8
0
10
1338.000000
20
723.000000
30
0.000000
0
VERTEX
8
0
10
999.000000
20
722.000000
30
0.000000
0
SEQEND
0
POLYLINE
8
0
6
CONTINUOUS
66
1
10
0.0
20
0.0
30
0.000000
0
VERTEX
8
0
10
45.000000
20
661.000000
30
0.000000
0
VERTEX
8
0
10
44.000000
20
662.000000
30
0.000000
0
VERTEX
8
0
10
30.000000
20
662.000000
30
0.000000
0
VERTEX
8
0
10
28.000000
20
660.000000
30
0.000000
0
VERTEX
8
0
10
28.000000
20
657.000000
30
0.000000
0
VERTEX
8
0
10
32.000000
20
655.000000
30
0.000000
0
VERTEX
8
0
10
1370.000000
20
655.000000
30
0.000000
0
VERTEX
8
0
10
1373.000000
20
658.000000
30
0.000000
0
VERTEX
8
0
10
1371.000000
20
662.000000
30
0.000000
0
VERTEX
8
0
10
997.000000
20
660.000000
30
0.000000
0
VERTEX
8
0
10
45.000000
20
661.000000
30
0.000000
0
SEQEND
0
POLYLINE
8
0
6
CONTINUOUS
66
1
10
0.0
20
0.0
30
0.000000
0
VERTEX
8
0
10
64.000000
20
646.000000
30
0.000000
0
VERTEX
8
0
10
63.000000
20
647.000000
30
0.000000
0
VERTEX
8
0
10
43.000000
20
647.000000
30
0.000000
0
VERTEX
8
0
10
41.000000
20
645.000000
30
0.000000
0
VERTEX
8
0
10
41.000000
20
70.000000
30
0.000000
0
VERTEX
8
0
10
52.000000
20
68.000000
30
0.000000
0
VERTEX
8
0
10
56.000000
20
70.000000
30
0.000000
0
VERTEX
8
0
10
56.000000
20
115.000000
30
0.000000
0
VERTEX
8
0
10
63.000000
20
117.000000
30
0.000000
0
VERTEX
8
0
10
66.000000
20
116.000000
30
0.000000
0
VERTEX
8
0
10
69.000000
20
119.000000
30
0.000000
0
VERTEX
8
0
10
68.000000
20
126.000000
30
0.000000
0
VERTEX
8
0
10
70.000000
20
129.000000
30
0.000000
0
VERTEX
8
0
10
75.000000
20
131.000000
30
0.000000
0
VERTEX
8
0
10
75.000000
20
138.000000
30
0.000000
0
VERTEX
8
0
10
79.000000
20
145.000000
30
0.000000
0
VERTEX
8
0
10
78.000000
20
596.000000
30
0.000000
0
VERTEX
8
0
10
83.000000
20
603.000000
30
0.000000
0
VERTEX
8
0
10
78.000000
20
610.000000
30
0.000000
0
VERTEX
8
0
10
80.000000
20
616.000000
30
0.000000
0
VERTEX
8
0
10
79.000000
20
618.000000
30
0.000000
0
VERTEX
8
0
10
65.000000
20
619.000000
30
0.000000
0
VERTEX
8
0
10
64.000000
20
646.000000
30
0.000000
0
SEQEND
0
POLYLINE
8
0
6
CONTINUOUS
66
1
10
0.0
20
0.0
30
0.000000
0
VERTEX
8
0
10
83.000000
20
646.000000
30
0.000000
0
VERTEX
8
0
10
82.000000
20
647.000000
30
0.000000
0
VERTEX
8
0
10
76.000000
20
647.000000
30
0.000000
0
VERTEX
8
0
10
74.000000
20
645.000000
30
0.000000
0
VERTEX
8
0
10
74.000000
20
629.000000
30
0.000000
0
VERTEX
8
0
10
76.000000
20
627.000000
30
0.000000
0
VERTEX
8
0
10
1325.000000
20
627.000000
30
0.000000
0
VERTEX
8
0
10
1327.000000
20
629.000000
30
0.000000
0
VERTEX
8
0
10
1327.000000
20
644.000000
30
0.000000
0
VERTEX
8
0
10
1324.000000
20
647.000000
30
0.000000
0
VERTEX
8
0
10
83.000000
20
646.000000
30
0.000000
0
SEQEND
0
POLYLINE
8
0
6
CONTINUOUS
66
1
10
0.0
20
0.0
30
0.000000
0
VERTEX
8
0
10
1340.000000
20
646.000000
30
0.000000
0
VERTEX
8
0
10
1339.000000
20
647.000000
30
0.000000
0
VERTEX
8
0
10
1337.000000
20
647.000000
30
0.000000
0
VERTEX
8
0
10
1335.000000
20
644.000000
30
0.000000
0
VERTEX
8
0
10
1335.000000
20
619.000000
30
0.000000
0
VERTEX
8
0
10
1316.000000
20
618.000000
30
0.000000
0
VERTEX
8
0
10
1316.000000
20
609.000000
30
0.000000
0
VERTEX
8
0
10
1312.000000
20
604.000000
30
0.000000
0
VERTEX
8
0
10
1316.000000
20
597.000000
30
0.000000
0
VERTEX
8
0
10
1316.000000
20
143.000000
30
0.000000
0
VERTEX
8
0
10
1319.000000
20
140.000000
30
0.000000
0
VERTEX
8
0
10
1319.000000
20
132.000000
30
0.000000
0
VERTEX
8
0
10
1326.000000
20
126.000000
30
0.000000
0
VERTEX
8
0
10
1325.000000
20
119.000000
30
0.000000
0
VERTEX
8
0
10
1328.000000
20
116.000000
30
0.000000
0
VERTEX
8
0
10
1340.000000
20
117.000000
30
0.000000
0
VERTEX
8
0
10
1340.000000
20
646.000000
30
0.000000
0
SEQEND
0
POLYLINE
8
0
6
CONTINUOUS
66
1
10
0.0
20
0.0
30
0.000000
0
VERTEX
8
0
10
140.000000
20
617.000000
30
0.000000
0
VERTEX
8
0
10
139.000000
20
618.000000
30
0.000000
0
VERTEX
8
0
10
105.000000
20
618.000000
30
0.000000
0
VERTEX
8
0
10
105.000000
20
610.000000
30
0.000000
0
VERTEX
8
0
10
101.000000
20
604.000000
30
0.000000
0
VERTEX
8
0
10
101.000000
20
601.000000
30
0.000000
0
VERTEX
8
0
10
105.000000
20
597.000000
30
0.000000
0
VERTEX
8
0
10
105.000000
20
143.000000
30
0.000000
0
VERTEX
8
0
10
108.000000
20
140.000000
30
0.000000
0
VERTEX
8
0
10
107.000000
20
133.000000
30
0.000000
0
VERTEX
8
0
10
115.000000
20
127.000000
30
0.000000
0
VERTEX
8
0
10
115.000000
20
118.000000
30
0.000000
0
VERTEX
8
0
10
117.000000
20
116.000000
30
0.000000
0
VERTEX
8
0
10
127.000000
20
116.000000
30
0.000000
0
VERTEX
8
0
10
129.000000
20
118.000000
30
0.000000
0
VERTEX
8
0
10
129.000000
20
127.000000
30
0.000000
0
VERTEX
8
0
10
130.000000
20
129.000000
30
0.000000
0
VERTEX
8
0
10
133.000000
20
129.000000
30
0.000000
0
VERTEX
8
0
10
136.000000
20
134.000000
30
0.000000
0
VERTEX
8
0
10
135.000000
20
139.000000
30
0.000000
0
VERTEX
8
0
10
139.000000
20
144.000000
30
0.000000
0
VERTEX
8
0
10
139.000000
20
598.000000
30
0.000000
0
VERTEX
8
0
10
143.000000
20
602.000000
30
0.000000
0
VERTEX
8
0
10
139.000000
20
609.000000
30
0.000000
0
VERTEX
8
0
10
140.000000
20
617.000000
30
0.000000
0
SEQEND
0
POLYLINE
8
0
6
CONTINUOUS
66
1
10
0.0
20
0.0
30
0.000000
0
VERTEX
8
0
10
444.000000
20
617.000000
30
0.000000
0
VERTEX
8
0
10
443.000000
20
618.000000
30
0.000000
0
VERTEX
8
0
10
164.000000
20
617.000000
30
0.000000
0
VERTEX
8
0
10
165.000000
20
609.000000
30
0.000000
0
VERTEX
8
0
10
161.000000
20
602.000000
30
0.000000
0
VERTEX
8
0
10
165.000000
20
598.000000
30
0.000000
0
VERTEX
8
0
10
165.000000
20
144.000000
30
0.000000
0
VERTEX
8
0
10
168.000000
20
141.000000
30
0.000000
0
VERTEX
8
0
10
168.000000
20
132.000000
30
0.000000
0
VERTEX
8
0
10
174.000000
20
129.000000
30
0.000000
0
VERTEX
8
0
10
175.000000
20
118.000000
30
0.000000
0
VERTEX
8
0
10
177.000000
20
116.000000
30
0.000000
0
VERTEX
8
0
10
180.000000
20
116.000000
30
0.000000
0
VERTEX
8
0
10
182.000000
20
118.000000
30
0.000000
0
VERTEX
8
0
10
182.000000
20
520.000000
30
0.000000
0
VERTEX
8
0
10
184.000000
20
526.000000
30
0.000000
0
VERTEX
8
0
10
265.000000
20
526.000000
30
0.000000
0
VERTEX
8
0
10
266.000000
20
494.000000
30
0.000000
0
VERTEX
8
0
10
264.000000
20
492.000000
30
0.000000
0
VERTEX
8
0
10
234.000000
20
492.000000
30
0.000000
0
VERTEX
8
0
10
232.000000
20
490.000000
30
0.000000
0
VERTEX
8
0
10
232.000000
20
467.000000
30
0.000000
0
VERTEX
8
0
10
234.000000
20
465.000000
30
0.000000
0
VERTEX
8
0
10
379.000000
20
465.000000
30
0.000000
0
VERTEX
8
0
10
380.000000
20
490.000000
30
0.000000
0
VERTEX
8
0
10
378.000000
20
492.000000
30
0.000000
0
VERTEX
8
0
10
349.000000
20
493.000000
30
0.000000
0
VERTEX
8
0
10
350.000000
20
526.000000
30
0.000000
0
VERTEX
8
0
10
425.000000
20
525.000000
30
0.000000
0
VERTEX
8
0
10
425.000000
20
118.000000
30
0.000000
0
VERTEX
8
0
10
428.000000
20
116.000000
30
0.000000
0
VERTEX
8
0
10
431.000000
20
116.000000
30
0.000000
0
VERTEX
8
0
10
433.000000
20
118.000000
30
0.000000
0
VERTEX
8
0
10
433.000000
20
127.000000
30
0.000000
0
VERTEX
8
0
10
440.000000
20
132.000000
30
0.000000
0
VERTEX
8
0
10
439.000000
20
138.000000
30
0.000000
0
VERTEX
8
0
10
443.000000
20
143.000000
30
0.000000
0
VERTEX
8
0
10
443.000000
20
598.000000
30
0.000000
0
VERTEX
8
0
10
447.000000
20
603.000000
30
0.000000
0
VERTEX
8
0
10
443.000000
20
610.000000
30
0.000000
0
VERTEX
8
0
10
444.000000
20
617.000000
30
0.000000
0
SEQEND
0
POLYLINE
8
0
6
CONTINUOUS
66
1
10
0.0
20
0.0
30
0.000000
0
VERTEX
8
0
10
504.000000
20
617.000000
30
0.000000
0
VERTEX
8
0
10
503.000000
20
618.000000
30
0.000000
0
VERTEX
8
0
10
469.000000
20
618.000000
30
0.000000
0
VERTEX
8
0
10
469.000000
20
609.000000
30
0.000000
0
VERTEX
8
0
10
465.000000
20
604.000000
30
0.000000
0
VERTEX
8
0
10
465.000000
20
602.000000
30
0.000000
0
VERTEX
8
0
10
469.000000
20
598.000000
30
0.000000
0
VERTEX
8
0
10
469.000000
20
144.000000
30
0.000000
0
VERTEX
8
0
10
473.000000
20
138.000000
30
0.000000
0
VERTEX
8
0
10
473.000000
20
131.000000
30
0.000000
0
VERTEX
8
0
10
479.000000
20
128.000000
30
0.000000
0
VERTEX
8
0
10
479.000000
20
118.000000
30
0.000000
0
VERTEX
8
0
10
481.000000
20
116.000000
30
0.000000
0
VERTEX
8
0
10
491.000000
20
116.000000
30
0.000000
0
VERTEX
8
0
10
493.000000
20
118.000000
30
0.000000
0
VERTEX
8
0
10
493.000000
20
127.000000
30
0.000000
0
VERTEX
8
0
10
500.000000
20
131.000000
30
0.000000
0
VERTEX
8
0
10
500.000000
20
139.000000
30
0.000000
0
VERTEX
8
0
10
503.000000
20
143.000000
30
0.000000
0
VERTEX
8
0
10
503.000000
20
597.000000
30
0.000000
0
VERTEX
8
0
10
507.000000
20
601.000000
30
0.000000
0
VERTEX
8
0
10
507.000000
20
604.000000
30
0.000000
0
VERTEX
8
0
10
503.000000
20
610.000000
30
0.000000
0
VERTEX
8
0
10
504.000000
20
617.000000
30
0.000000
0
SEQEND
0
POLYLINE
8
0
6
CONTINUOUS
66
1
10
0.0
20
0.0
30
0.000000
0
VERTEX
8
0
10
866.000000
20
617.000000
30
0.000000
0
VERTEX
8
0
10
865.000000
20
618.000000
30
0.000000
0
VERTEX
8
0
10
529.000000
20
617.000000
30
0.000000
0
VERTEX
8
0
10
530.000000
20
610.000000
30
0.000000
0
VERTEX
8
0
10
526.000000
20
605.000000
30
0.000000
0
VERTEX
8
0
10
526.000000
20
601.000000
30
0.000000
0
VERTEX
8
0
10
530.000000
20
598.000000
30
0.000000
0
VERTEX
8
0
10
530.000000
20
143.000000
30
0.000000
0
VERTEX
8
0
10
533.000000
20
139.000000
30
0.000000
0
VERTEX
8
0
10
532.000000
20
132.000000
30
0.000000
0
VERTEX
8
0
10
538.000000
20
129.000000
30
0.000000
0
VERTEX
8
0
10
540.000000
20
126.000000
30
0.000000
0
VERTEX
8
0
10
539.000000
20
119.000000
30
0.000000
0
VERTEX
8
0
10
541.000000
20
116.000000
30
0.000000
0
VERTEX
8
0
10
552.000000
20
115.000000
30
0.000000
0
VERTEX
8
0
10
552.000000
20
71.000000
30
0.000000
0
VERTEX
8
0
10
554.000000
20
69.000000
30
0.000000
0
VERTEX
8
0
10
572.000000
20
70.000000
30
0.000000
0
VERTEX
8
0
10
572.000000
20
341.000000
30
0.000000
0
VERTEX
8
0
10
577.000000
20
365.000000
30
0.000000
0
VERTEX
8
0
10
590.000000
20
390.000000
30
0.000000
0
VERTEX
8
0
10
610.000000
20
412.000000
30
0.000000
0
VERTEX
8
0
10
624.000000
20
422.000000
30
0.000000
0
VERTEX
8
0
10
649.000000
20
434.000000
30
0.000000
0
VERTEX
8
0
10
665.000000
20
439.000000
30
0.000000
0
VERTEX
8
0
10
676.000000
20
440.000000
30
0.000000
0
VERTEX
8
0
10
678.000000
20
442.000000
30
0.000000
0
VERTEX
8
0
10
679.000000
20
458.000000
30
0.000000
0
VERTEX
8
0
10
714.000000
20
458.000000
30
0.000000
0
VERTEX
8
0
10
715.000000
20
442.000000
30
0.000000
0
VERTEX
8
0
10
717.000000
20
440.000000
30
0.000000
0
VERTEX
8
0
10
727.000000
20
439.000000
30
0.000000
0
VERTEX
8
0
10
747.000000
20
433.000000
30
0.000000
0
VERTEX
8
0
10
766.000000
20
424.000000
30
0.000000
0
VERTEX
8
0
10
778.000000
20
416.000000
30
0.000000
0
VERTEX
8
0
10
801.000000
20
393.000000
30
0.000000
0
VERTEX
8
0
10
814.000000
20
370.000000
30
0.000000
0
VERTEX
8
0
10
819.000000
20
355.000000
30
0.000000
0
VERTEX
8
0
10
821.000000
20
343.000000
30
0.000000
0
VERTEX
8
0
10
821.000000
20
70.000000
30
0.000000
0
VERTEX
8
0
10
841.000000
20
70.000000
30
0.000000
0
VERTEX
8
0
10
842.000000
20
115.000000
30
0.000000
0
VERTEX
8
0
10
852.000000
20
116.000000
30
0.000000
0
VERTEX
8
0
10
854.000000
20
118.000000
30
0.000000
0
VERTEX
8
0
10
854.000000
20
126.000000
30
0.000000
0
VERTEX
8
0
10
856.000000
20
129.000000
30
0.000000
0
VERTEX
8
0
10
859.000000
20
129.000000
30
0.000000
0
VERTEX
8
0
10
861.000000
20
131.000000
30
0.000000
0
VERTEX
8
0
10
861.000000
20
139.000000
30
0.000000
0
VERTEX
8
0
10
865.000000
20
144.000000
30
0.000000
0
VERTEX
8
0
10
864.000000
20
597.000000
30
0.000000
0
VERTEX
8
0
10
868.000000
20
601.000000
30
0.000000
0
VERTEX
8
0
10
868.000000
20
605.000000
30
0.000000
0
VERTEX
8
0
10
864.000000
20
611.000000
30
0.000000
0
VERTEX
8
0
10
866.000000
20
617.000000
30
0.000000
0
SEQEND
0
POLYLINE
8
0
6
CONTINUOUS
66
1
10
0.0
20
0.0
30
0.000000
0
VERTEX
8
0
10
926.000000
20
617.000000
30
0.000000
0
VERTEX
8
0
10
925.000000
20
618.000000
30
0.000000
0
VERTEX
8
0
10
891.000000
20
618.000000
30
0.000000
0
VERTEX
8
0
10
891.000000
20
610.000000
30
0.000000
0
VERTEX
8
0
10
887.000000
20
604.000000
30
0.000000
0
VERTEX
8
0
10
887.000000
20
601.000000
30
0.000000
0
VERTEX
8
0
10
891.000000
20
597.000000
30
0.000000
0
VERTEX
8
0
10
890.000000
20
145.000000
30
0.000000
0
VERTEX
8
0
10
894.000000
20
140.000000
30
0.000000
0
VERTEX
8
0
10
894.000000
20
132.000000
30
0.000000
0
VERTEX
8
0
10
900.000000
20
128.000000
30
0.000000
0
VERTEX
8
0
10
900.000000
20
118.000000
30
0.000000
0
VERTEX
8
0
10
903.000000
20
116.000000
30
0.000000
0
VERTEX
8
0
10
913.000000
20
116.000000
30
0.000000
0
VERTEX
8
0
10
915.000000
20
118.000000
30
0.000000
0
VERTEX
8
0
10
915.000000
20
127.000000
30
0.000000
0
VERTEX
8
0
10
916.000000
20
129.000000
30
0.000000
0
VERTEX
8
0
10
922.000000
20
132.000000
30
0.000000
0
VERTEX
8
0
10
922.000000
20
140.000000
30
0.000000
0
VERTEX
8
0
10
925.000000
20
143.000000
30
0.000000
0
VERTEX
8
0
10
925.000000
20
598.000000
30
0.000000
0
VERTEX
8
0
10
929.000000
20
602.000000
30
0.000000
0
VERTEX
8
0
10
925.000000
20
609.000000
30
0.000000
0
VERTEX
8
0
10
926.000000
20
617.000000
30
0.000000
0
SEQEND
0
POLYLINE
8
0
6
CONTINUOUS
66
1
10
0.0
20
0.0
30
0.000000
0
VERTEX
8
0
10
1230.000000
20
617.000000
30
0.000000
0
VERTEX
8
0
10
1229.000000
20
618.000000
30
0.000000
0
VERTEX
8
0
10
950.000000
20
617.000000
30
0.000000
0
VERTEX
8
0
10
952.000000
20
611.000000
30
0.000000
0
VERTEX
8
0
10
947.000000
20
604.000000
30
0.000000
0
VERTEX
8
0
10
947.000000
20
602.000000
30
0.000000
0
VERTEX
8
0
10
952.000000
20
596.000000
30
0.000000
0
VERTEX
8
0
10
951.000000
20
144.000000
30
0.000000
0
VERTEX
8
0
10
955.000000
20
137.000000
30
0.000000
0
VERTEX
8
0
10
954.000000
20
132.000000
30
0.000000
0
VERTEX
8
0
10
961.000000
20
127.000000
30
0.000000
0
VERTEX
8
0
10
961.000000
20
118.000000
30
0.000000
0
VERTEX
8
0
10
964.000000
20
116.000000
30
0.000000
0
VERTEX
8
0
10
968.000000
20
116.000000
30
0.000000
0
VERTEX
8
0
10
970.000000
20
118.000000
30
0.000000
0
VERTEX
8
0
10
971.000000
20
526.000000
30
0.000000
0
VERTEX
8
0
10
1046.000000
20
525.000000
30
0.000000
0
VERTEX
8
0
10
1046.000000
20
493.000000
30
0.000000
0
VERTEX
8
0
10
1017.000000
20
492.000000
30
0.000000
0
VERTEX
8
0
10
1015.000000
20
490.000000
30
0.000000
0
VERTEX
8
0
10
1015.000000
20
467.000000
30
0.000000
0
VERTEX
8
0
10
1017.000000
20
465.000000
30
0.000000
0
VERTEX
8
0
10
1161.000000
20
465.000000
30
0.000000
0
VERTEX
8
0
10
1163.000000
20
467.000000
30
0.000000
0
VERTEX
8
0
10
1163.000000
20
490.000000
30
0.000000
0
VERTEX
8
0
10
1161.000000
20
492.000000
30
0.000000
0
VERTEX
8
0
10
1129.000000
20
493.000000
30
0.000000
0
VERTEX
8
0
10
1130.000000
20
526.000000
30
0.000000
0
VERTEX
8
0
10
1211.000000
20
525.000000
30
0.000000
0
VERTEX
8
0
10
1211.000000
20
118.000000
30
0.000000
0
VERTEX
8
0
10
1214.000000
20
116.000000
30
0.000000
0
VERTEX
8
0
10
1217.000000
20
116.000000
30
0.000000
0
VERTEX
8
0
10
1219.000000
20
118.000000
30
0.000000
0
VERTEX
8
0
10
1219.000000
20
126.000000
30
0.000000
0
VERTEX
8
0
10
1220.000000
20
128.000000
30
0.000000
0
VERTEX
8
0
10
1226.000000
20
131.000000
30
0.000000
0
VERTEX
8
0
10
1226.000000
20
140.000000
30
0.000000
0
VERTEX
8
0
10
1230.000000
20
145.000000
30
0.000000
0
VERTEX
8
0
10
1229.000000
20
597.000000
30
0.000000
0
VERTEX
8
0
10
1233.000000
20
601.000000
30
0.000000
0
VERTEX
8
0
10
1233.000000
20
604.000000
30
0.000000
0
VERTEX
8
0
10
1229.000000
20
610.000000
30
0.000000
0
VERTEX
8
0
10
1230.000000
20
617.000000
30
0.000000
0
SEQEND
0
POLYLINE
8
0
6
CONTINUOUS
66
1
10
0.0
20
0.0
30
0.000000
0
VERTEX
8
0
10
1291.000000
20
617.000000
30
0.000000
0
VERTEX
8
0
10
1290.000000
20
618.000000
30
0.000000
0
VERTEX
8
0
10
1255.000000
20
618.000000
30
0.000000
0
VERTEX
8
0
10
1254.000000
20
616.000000
30
0.000000
0
VERTEX
8
0
10
1256.000000
20
610.000000
30
0.000000
0
VERTEX
8
0
10
1251.000000
20
603.000000
30
0.000000
0
VERTEX
8
0
10
1256.000000
20
598.000000
30
0.000000
0
VERTEX
8
0
10
1255.000000
20
144.000000
30
0.000000
0
VERTEX
8
0
10
1259.000000
20
139.000000
30
0.000000
0
VERTEX
8
0
10
1259.000000
20
131.000000
30
0.000000
0
VERTEX
8
0
10
1264.000000
20
129.000000
30
0.000000
0
VERTEX
8
0
10
1266.000000
20
126.000000
30
0.000000
0
VERTEX
8
0
10
1265.000000
20
118.000000
30
0.000000
0
VERTEX
8
0
10
1268.000000
20
116.000000
30
0.000000
0
VERTEX
8
0
10
1278.000000
20
116.000000
30
0.000000
0
VERTEX
8
0
10
1280.000000
20
118.000000
30
0.000000
0
VERTEX
8
0
10
1280.000000
20
128.000000
30
0.000000
0
VERTEX
8
0
10
1286.000000
20
131.000000
30
0.000000
0
VERTEX
8
0
10
1286.000000
20
138.000000
30
0.000000
0
VERTEX
8
0
10
1290.000000
20
144.000000
30
0.000000
0
VERTEX
8
0
10
1289.000000
20
597.000000
30
0.000000
0
VERTEX
8
0
10
1294.000000
20
602.000000
30
0.000000
0
VERTEX
8
0
10
1289.000000
20
611.000000
30
0.000000
0
VERTEX
8
0
10
1291.000000
20
617.000000
30
0.000000
0
SEQEND
0
POLYLINE
8
0
6
CONTINUOUS
66
1
10
0.0
20
0.0
30
0.000000
0
VERTEX
8
0
10
91.000000
20
616.000000
30
0.000000
0
VERTEX
8
0
10
89.000000
20
617.000000
30
0.000000
0
VERTEX
8
0
10
83.000000
20
613.000000
30
0.000000
0
VERTEX
8
0
10
83.000000
20
611.000000
30
0.000000
0
VERTEX
8
0
10
86.000000
20
608.000000
30
0.000000
0
VERTEX
8
0
10
98.000000
20
608.000000
30
0.000000
0
VERTEX
8
0
10
100.000000
20
610.000000
30
0.000000
0
VERTEX
8
0
10
99.000000
20
615.000000
30
0.000000
0
VERTEX
8
0
10
91.000000
20
616.000000
30
0.000000
0
SEQEND
0
POLYLINE
8
0
6
CONTINUOUS
66
1
10
0.0
20
0.0
30
0.000000
0
VERTEX
8
0
10
461.000000
20
616.000000
30
0.000000
0
VERTEX
8
0
10
460.000000
20
617.000000
30
0.000000
0
VERTEX
8
0
10
452.000000
20
617.000000
30
0.000000
0
VERTEX
8
0
10
448.000000
20
614.000000
30
0.000000
0
VERTEX
8
0
10
448.000000
20
610.000000
30
0.000000
0
VERTEX
8
0
10
450.000000
20
608.000000
30
0.000000
0
VERTEX
8
0
10
462.000000
20
608.000000
30
0.000000
0
VERTEX
8
0
10
465.000000
20
612.000000
30
0.000000
0
VERTEX
8
0
10
461.000000
20
616.000000
30
0.000000
0
SEQEND
0
POLYLINE
8
0
6
CONTINUOUS
66
1
10
0.0
20
0.0
30
0.000000
0
VERTEX
8
0
10
520.000000
20
616.000000
30
0.000000
0
VERTEX
8
0
10
519.000000
20
617.000000
30
0.000000
0
VERTEX
8
0
10
510.000000
20
616.000000
30
0.000000
0
VERTEX
8
0
10
508.000000
20
614.000000
30
0.000000
0
VERTEX
8
0
10
508.000000
20
610.000000
30
0.000000
0
VERTEX
8
0
10
510.000000
20
608.000000
30
0.000000
0
VERTEX
8
0
10
523.000000
20
608.000000
30
0.000000
0
VERTEX
8
0
10
525.000000
20
610.000000
30
0.000000
0
VERTEX
8
0
10
525.000000
20
614.000000
30
0.000000
0
VERTEX
8
0
10
523.000000
20
616.000000
30
0.000000
0
VERTEX
8
0
10
520.000000
20
616.000000
30
0.000000
0
SEQEND
0
POLYLINE
8
0
6
CONTINUOUS
66
1
10
0.0
20
0.0
30
0.000000
0
VERTEX
8
0
10
882.000000
20
616.000000
30
0.000000
0
VERTEX
8
0
10
881.000000
20
617.000000
30
0.000000
0
VERTEX
8
0
10
874.000000
20
617.000000
30
0.000000
0
VERTEX
8
0
10
869.000000
20
613.000000
30
0.000000
0
VERTEX
8
0
10
869.000000
20
611.000000
30
0.000000
0
VERTEX
8
0
10
872.000000
20
608.000000
30
0.000000
0
VERTEX
8
0
10
884.000000
20
608.000000
30
0.000000
0
VERTEX
8
0
10
886.000000
20
610.000000
30
0.000000
0
VERTEX
8
0
10
886.000000
20
614.000000
30
0.000000
0
VERTEX
8
0
10
882.000000
20
616.000000
30
0.000000
0
SEQEND
0
POLYLINE
8
0
6
CONTINUOUS
66
1
10
0.0
20
0.0
30
0.000000
0
VERTEX
8
0
10
943.000000
20
616.000000
30
0.000000
0
VERTEX
8
0
10
942.000000
20
617.000000
30
0.000000
0
VERTEX
8
0
10
932.000000
20
616.000000
30
0.000000
0
VERTEX
8
0
10
930.000000
20
614.000000
30
0.000000
0
VERTEX
8
0
10
930.000000
20
610.000000
30
0.000000
0
VERTEX
8
0
10
932.000000
20
608.000000
30
0.000000
0
VERTEX
8
0
10
944.000000
20
608.000000
30
0.000000
0
VERTEX
8
0
10
947.000000
20
612.000000
30
0.000000
0
VERTEX
8
0
10
943.000000
20
616.000000
30
0.000000
0
SEQEND
0
POLYLINE
8
0
6
CONTINUOUS
66
1
10
0.0
20
0.0
30
0.000000
0
VERTEX
8
0
10
1247.000000
20
616.000000
30
0.000000
0
VERTEX
8
0
10
1246.000000
20
617.000000
30
0.000000
0
VERTEX
8
0
10
1236.000000
20
616.000000
30
0.000000
0
VERTEX
8
0
10
1234.000000
20
614.000000
30
0.000000
0
VERTEX
8
0
10
1234.000000
20
610.000000
30
0.000000
0
VERTEX
8
0
10
1236.000000
20
608.000000
30
0.000000
0
VERTEX
8
0
10
1248.000000
20
608.000000
30
0.000000
0
VERTEX
8
0
10
1251.000000
20
611.000000
30
0.000000
0
VERTEX
8
0
10
1249.000000
20
616.000000
30
0.000000
0
VERTEX
8
0
10
1247.000000
20
616.000000
30
0.000000
0
SEQEND
0
POLYLINE
8
0
6
CONTINUOUS
66
1
10
0.0
20
0.0
30
0.000000
0
VERTEX
8
0
10
1308.000000
20
616.000000
30
0.000000
0
VERTEX
8
0
10
1307.000000
20
617.000000
30
0.000000
0
VERTEX
8
0
10
1297.000000
20
616.000000
30
0.000000
0
VERTEX
8
0
10
1294.000000
20
613.000000
30
0.000000
0
VERTEX
8
0
10
1294.000000
20
611.000000
30
0.000000
0
VERTEX
8
0
10
1297.000000
20
608.000000
30
0.000000
0
VERTEX
8
0
10
1307.000000
20
607.000000
30
0.000000
0
VERTEX
8
0
10
1311.000000
20
610.000000
30
0.000000
0
VERTEX
8
0
10
1311.000000
20
614.000000
30
0.000000
0
VERTEX
8
0
10
1308.000000
20
616.000000
30
0.000000
0
SEQEND
0
POLYLINE
8
0
6
CONTINUOUS
66
1
10
0.0
20
0.0
30
0.000000
0
VERTEX
8
0
10
159.000000
20
615.000000
30
0.000000
0
VERTEX
8
0
10
158.000000
20
616.000000
30
0.000000
0
VERTEX
8
0
10
146.000000
20
616.000000
30
0.000000
0
VERTEX
8
0
10
143.000000
20
612.000000
30
0.000000
0
VERTEX
8
0
10
146.000000
20
608.000000
30
0.000000
0
VERTEX
8
0
10
158.000000
20
608.000000
30
0.000000
0
VERTEX
8
0
10
161.000000
20
612.000000
30
0.000000
0
VERTEX
8
0
10
159.000000
20
615.000000
30
0.000000
0
SEQEND
0
POLYLINE
8
0
6
CONTINUOUS
66
1
10
0.0
20
0.0
30
0.000000
0
VERTEX
8
0
10
94.000000
20
603.000000
30
0.000000
0
VERTEX
8
0
10
93.000000
20
604.000000
30
0.000000
0
VERTEX
8
0
10
88.000000
20
603.000000
30
0.000000
0
VERTEX
8
0
10
88.000000
20
599.000000
30
0.000000
0
VERTEX
8
0
10
95.000000
20
599.000000
30
0.000000
0
VERTEX
8
0
10
97.000000
20
601.000000
30
0.000000
0
VERTEX
8
0
10
94.000000
20
603.000000
30
0.000000
0
SEQEND
0
POLYLINE
8
0
6
CONTINUOUS
66
1
10
0.0
20
0.0
30
0.000000
0
VERTEX
8
0
10
156.000000
20
603.000000
30
0.000000
0
VERTEX
8
0
10
154.000000
20
604.000000
30
0.000000
0
VERTEX
8
0
10
148.000000
20
603.000000
30
0.000000
0
VERTEX
8
0
10
147.000000
20
601.000000
30
0.000000
0
VERTEX
8
0
10
149.000000
20
599.000000
30
0.000000
0
VERTEX
8
0
10
156.000000
20
599.000000
30
0.000000
0
VERTEX
8
0
10
156.000000
20
603.000000
30
0.000000
0
SEQEND
0
POLYLINE
8
0
6
CONTINUOUS
66
1
10
0.0
20
0.0
30
0.000000
0
VERTEX
8
0
10
459.000000
20
603.000000
30
0.000000
0
VERTEX
8
0
10
458.000000
20
604.000000
30
0.000000
0
VERTEX
8
0
10
452.000000
20
603.000000
30
0.000000
0
VERTEX
8
0
10
452.000000
20
599.000000
30
0.000000
0
VERTEX
8
0
10
459.000000
20
599.000000
30
0.000000
0
VERTEX
8
0
10
461.000000
20
602.000000
30
0.000000
0
VERTEX
8
0
10
459.000000
20
603.000000
30
0.000000
0
SEQEND
0
POLYLINE
8
0
6
CONTINUOUS
66
1
10
0.0
20
0.0
30
0.000000
0
VERTEX
8
0
10
521.000000
20
602.000000
30
0.000000
0
VERTEX
8
0
10
520.000000
20
603.000000
30
0.000000
0
VERTEX
8
0
10
513.000000
20
603.000000
30
0.000000
0
VERTEX
8
0
10
513.000000
20
599.000000
30
0.000000
0
VERTEX
8
0
10
520.000000
20
599.000000
30
0.000000
0
VERTEX
8
0
10
521.000000
20
602.000000
30
0.000000
0
SEQEND
0
POLYLINE
8
0
6
CONTINUOUS
66
1
10
0.0
20
0.0
30
0.000000
0
VERTEX
8
0
10
883.000000
20
602.000000
30
0.000000
0
VERTEX
8
0
10
882.000000
20
603.000000
30
0.000000
0
VERTEX
8
0
10
874.000000
20
603.000000
30
0.000000
0
VERTEX
8
0
10
874.000000
20
599.000000
30
0.000000
0
VERTEX
8
0
10
881.000000
20
599.000000
30
0.000000
0
VERTEX
8
0
10
883.000000
20
602.000000
30
0.000000
0
SEQEND
0
POLYLINE
8
0
6
CONTINUOUS
66
1
10
0.0
20
0.0
30
0.000000
0
VERTEX
8
0
10
943.000000
20
602.000000
30
0.000000
0
VERTEX
8
0
10
942.000000
20
603.000000
30
0.000000
0
VERTEX
8
0
10
934.000000
20
603.000000
30
0.000000
0
VERTEX
8
0
10
934.000000
20
599.000000
30
0.000000
0
VERTEX
8
0
10
941.000000
20
599.000000
30
0.000000
0
VERTEX
8
0
10
943.000000
20
602.000000
30
0.000000
0
SEQEND
0
POLYLINE
8
0
6
CONTINUOUS
66
1
10
0.0
20
0.0
30
0.000000
0
VERTEX
8
0
10
1247.000000
20
602.000000
30
0.000000
0
VERTEX
8
0
10
1246.000000
20
603.000000
30
0.000000
0
VERTEX
8
0
10
1238.000000
20
603.000000
30
0.000000
0
VERTEX
8
0
10
1237.000000
20
601.000000
30
0.000000
0
VERTEX
8
0
10
1239.000000
20
599.000000
30
0.000000
0
VERTEX
8
0
10
1246.000000
20
599.000000
30
0.000000
0
VERTEX
8
0
10
1247.000000
20
602.000000
30
0.000000
0
SEQEND
0
POLYLINE
8
0
6
CONTINUOUS
66
1
10
0.0
20
0.0
30
0.000000
0
VERTEX
8
0
10
1308.000000
20
602.000000
30
0.000000
0
VERTEX
8
0
10
1307.000000
20
603.000000
30
0.000000
0
VERTEX
8
0
10
1299.000000
20
603.000000
30
0.000000
0
VERTEX
8
0
10
1299.000000
20
599.000000
30
0.000000
0
VERTEX
8
0
10
1307.000000
20
599.000000
30
0.000000
0
VERTEX
8
0
10
1308.000000
20
602.000000
30
0.000000
0
SEQEND
0
POLYLINE
8
0
6
CONTINUOUS
66
1
10
0.0
20
0.0
30
0.000000
0
VERTEX
8
0
10
99.000000
20
594.000000
30
0.000000
0
VERTEX
8
0
10
98.000000
20
595.000000
30
0.000000
0
VERTEX
8
0
10
85.000000
20
595.000000
30
0.000000
0
VERTEX
8
0
10
83.000000
20
593.000000
30
0.000000
0
VERTEX
8
0
10
83.000000
20
144.000000
30
0.000000
0
VERTEX
8
0
10
86.000000
20
142.000000
30
0.000000
0
VERTEX
8
0
10
98.000000
20
142.000000
30
0.000000
0
VERTEX
8
0
10
101.000000
20
145.000000
30
0.000000
0
VERTEX
8
0
10
99.000000
20
594.000000
30
0.000000
0
SEQEND
0
POLYLINE
8
0
6
CONTINUOUS
66
1
10
0.0
20
0.0
30
0.000000
0
VERTEX
8
0
10
160.000000
20
594.000000
30
0.000000
0
VERTEX
8
0
10
159.000000
20
595.000000
30
0.000000
0
VERTEX
8
0
10
146.000000
20
595.000000
30
0.000000
0
VERTEX
8
0
10
143.000000
20
591.000000
30
0.000000
0
VERTEX
8
0
10
143.000000
20
145.000000
30
0.000000
0
VERTEX
8
0
10
147.000000
20
142.000000
30
0.000000
0
VERTEX
8
0
10
158.000000
20
142.000000
30
0.000000
0
VERTEX
8
0
10
161.000000
20
144.000000
30
0.000000
0
VERTEX
8
0
10
160.000000
20
594.000000
30
0.000000
0
SEQEND
0
POLYLINE
8
0
6
CONTINUOUS
66
1
10
0.0
20
0.0
30
0.000000
0
VERTEX
8
0
10
463.000000
20
594.000000
30
0.000000
0
VERTEX
8
0
10
462.000000
20
595.000000
30
0.000000
0
VERTEX
8
0
10
449.000000
20
595.000000
30
0.000000
0
VERTEX
8
0
10
447.000000
20
591.000000
30
0.000000
0
VERTEX
8
0
10
447.000000
20
144.000000
30
0.000000
0
VERTEX
8
0
10
450.000000
20
142.000000
30
0.000000
0
VERTEX
8
0
10
461.000000
20
142.000000
30
0.000000
0
VERTEX
8
0
10
465.000000
20
144.000000
30
0.000000
0
VERTEX
8
0
10
465.000000
20
592.000000
30
0.000000
0
VERTEX
8
0
10
463.000000
20
594.000000
30
0.000000
0
SEQEND
0
POLYLINE
8
0
6
CONTINUOUS
66
1
10
0.0
20
0.0
30
0.000000
0
VERTEX
8
0
10
524.000000
20
594.000000
30
0.000000
0
VERTEX
8
0
10
523.000000
20
595.000000
30
0.000000
0
VERTEX
8
0
10
510.000000
20
595.000000
30
0.000000
0
VERTEX
8
0
10
508.000000
20
593.000000
30
0.000000
0
VERTEX
8
0
10
507.000000
20
145.000000
30
0.000000
0
VERTEX
8
0
10
510.000000
20
142.000000
30
0.000000
0
VERTEX
8
0
10
523.000000
20
142.000000
30
0.000000
0
VERTEX
8
0
10
525.000000
20
144.000000
30
0.000000
0
VERTEX
8
0
10
524.000000
20
594.000000
30
0.000000
0
SEQEND
0
POLYLINE
8
0
6
CONTINUOUS
66
1
10
0.0
20
0.0
30
0.000000
0
VERTEX
8
0
10
885.000000
20
594.000000
30
0.000000
0
VERTEX
8
0
10
884.000000
20
595.000000
30
0.000000
0
VERTEX
8
0
10
872.000000
20
595.000000
30
0.000000
0
VERTEX
8
0
10
869.000000
20
593.000000
30
0.000000
0
VERTEX
8
0
10
869.000000
20
144.000000
30
0.000000
0
VERTEX
8
0
10
873.000000
20
142.000000
30
0.000000
0
VERTEX
8
0
10
884.000000
20
142.000000
30
0.000000
0
VERTEX
8
0
10
886.000000
20
144.000000
30
0.000000
0
VERTEX
8
0
10
885.000000
20
594.000000
30
0.000000
0
SEQEND
0
POLYLINE
8
0
6
CONTINUOUS
66
1
10
0.0
20
0.0
30
0.000000
0
VERTEX
8
0
10
946.000000
20
594.000000
30
0.000000
0
VERTEX
8
0
10
945.000000
20
595.000000
30
0.000000
0
VERTEX
8
0
10
932.000000
20
595.000000
30
0.000000
0
VERTEX
8
0
10
930.000000
20
593.000000
30
0.000000
0
VERTEX
8
0
10
929.000000
20
145.000000
30
0.000000
0
VERTEX
8
0
10
932.000000
20
142.000000
30
0.000000
0
VERTEX
8
0
10
944.000000
20
142.000000
30
0.000000
0
VERTEX
8
0
10
947.000000
20
144.000000
30
0.000000
0
VERTEX
8
0
10
946.000000
20
594.000000
30
0.000000
0
SEQEND
0
POLYLINE
8
0
6
CONTINUOUS
66
1
10
0.0
20
0.0
30
0.000000
0
VERTEX
8
0
10
1250.000000
20
594.000000
30
0.000000
0
VERTEX
8
0
10
1249.000000
20
595.000000
30
0.000000
0
VERTEX
8
0
10
1236.000000
20
595.000000
30
0.000000
0
VERTEX
8
0
10
1234.000000
20
593.000000
30
0.000000
0
VERTEX
8
0
10
1234.000000
20
144.000000
30
0.000000
0
VERTEX
8
0
10
1237.000000
20
142.000000
30
0.000000
0
VERTEX
8
0
10
1249.000000
20
142.000000
30
0.000000
0
VERTEX
8
0
10
1251.000000
20
144.000000
30
0.000000
0
VERTEX
8
0
10
1250.000000
20
594.000000
30
0.000000
0
SEQEND
0
POLYLINE
8
0
6
CONTINUOUS
66
1
10
0.0
20
0.0
30
0.000000
0
VERTEX
8
0
10
1310.000000
20
594.000000
30
0.000000
0
VERTEX
8
0
10
1309.000000
20
595.000000
30
0.000000
0
VERTEX
8
0
10
1296.000000
20
595.000000
30
0.000000
0
VERTEX
8
0
10
1294.000000
20
593.000000
30
0.000000
0
VERTEX
8
0
10
1294.000000
20
144.000000
30
0.000000
0
VERTEX
8
0
10
1297.000000
20
142.000000
30
0.000000
0
VERTEX
8
0
10
1309.000000
20
142.000000
30
0.000000
0
VERTEX
8
0
10
1311.000000
20
144.000000
30
0.000000
0
VERTEX
8
0
10
1310.000000
20
594.000000
30
0.000000
0
SEQEND
0
POLYLINE
8
0
6
CONTINUOUS
66
1
10
0.0
20
0.0
30
0.000000
0
VERTEX
8
0
10
194.000000
20
521.000000
30
0.000000
0
VERTEX
8
0
10
192.000000
20
522.000000
30
0.000000
0
VERTEX
8
0
10
189.000000
20
520.000000
30
0.000000
0
VERTEX
8
0
10
188.000000
20
71.000000
30
0.000000
0
VERTEX
8
0
10
190.000000
20
69.000000
30
0.000000
0
VERTEX
8
0
10
206.000000
20
70.000000
30
0.000000
0
VERTEX
8
0
10
207.000000
20
319.000000
30
0.000000
0
VERTEX
8
0
10
209.000000
20
327.000000
30
0.000000
0
VERTEX
8
0
10
218.000000
20
345.000000
30
0.000000
0
VERTEX
8
0
10
224.000000
20
353.000000
30
0.000000
0
VERTEX
8
0
10
237.000000
20
365.000000
30
0.000000
0
VERTEX
8
0
10
249.000000
20
373.000000
30
0.000000
0
VERTEX
8
0
10
262.000000
20
379.000000
30
0.000000
0
VERTEX
8
0
10
279.000000
20
383.000000
30
0.000000
0
VERTEX
8
0
10
281.000000
20
385.000000
30
0.000000
0
VERTEX
8
0
10
281.000000
20
402.000000
30
0.000000
0
VERTEX
8
0
10
283.000000
20
404.000000
30
0.000000
0
VERTEX
8
0
10
317.000000
20
404.000000
30
0.000000
0
VERTEX
8
0
10
318.000000
20
386.000000
30
0.000000
0
VERTEX
8
0
10
321.000000
20
384.000000
30
0.000000
0
VERTEX
8
0
10
334.000000
20
382.000000
30
0.000000
0
VERTEX
8
0
10
359.000000
20
371.000000
30
0.000000
0
VERTEX
8
0
10
369.000000
20
364.000000
30
0.000000
0
VERTEX
8
0
10
384.000000
20
349.000000
30
0.000000
0
VERTEX
8
0
10
394.000000
20
332.000000
30
0.000000
0
VERTEX
8
0
10
399.000000
20
310.000000
30
0.000000
0
VERTEX
8
0
10
399.000000
20
70.000000
30
0.000000
0
VERTEX
8
0
10
420.000000
20
70.000000
30
0.000000
0
VERTEX
8
0
10
421.000000
20
518.000000
30
0.000000
0
VERTEX
8
0
10
418.000000
20
522.000000
30
0.000000
0
VERTEX
8
0
10
357.000000
20
522.000000
30
0.000000
0
VERTEX
8
0
10
353.000000
20
519.000000
30
0.000000
0
VERTEX
8
0
10
353.000000
20
499.000000
30
0.000000
0
VERTEX
8
0
10
356.000000
20
496.000000
30
0.000000
0
VERTEX
8
0
10
384.000000
20
496.000000
30
0.000000
0
VERTEX
8
0
10
385.000000
20
463.000000
30
0.000000
0
VERTEX
8
0
10
383.000000
20
460.000000
30
0.000000
0
VERTEX
8
0
10
230.000000
20
460.000000
30
0.000000
0
VERTEX
8
0
10
227.000000
20
463.000000
30
0.000000
0
VERTEX
8
0
10
228.000000
20
496.000000
30
0.000000
0
VERTEX
8
0
10
259.000000
20
496.000000
30
0.000000
0
VERTEX
8
0
10
261.000000
20
498.000000
30
0.000000
0
VERTEX
8
0
10
261.000000
20
520.000000
30
0.000000
0
VERTEX
8
0
10
258.000000
20
522.000000
30
0.000000
0
VERTEX
8
0
10
194.000000
20
521.000000
30
0.000000
0
SEQEND
0
POLYLINE
8
0
6
CONTINUOUS
66
1
10
0.0
20
0.0
30
0.000000
0
VERTEX
8
0
10
980.000000
20
521.000000
30
0.000000
0
VERTEX
8
0
10
979.000000
20
522.000000
30
0.000000
0
VERTEX
8
0
10
977.000000
20
522.000000
30
0.000000
0
VERTEX
8
0
10
974.000000
20
519.000000
30
0.000000
0
VERTEX
8
0
10
974.000000
20
70.000000
30
0.000000
0
VERTEX
8
0
10
998.000000
20
69.000000
30
0.000000
0
VERTEX
8
0
10
1000.000000
20
71.000000
30
0.000000
0
VERTEX
8
0
10
1000.000000
20
314.000000
30
0.000000
0
VERTEX
8
0
10
1004.000000
20
330.000000
30
0.000000
0
VERTEX
8
0
10
1014.000000
20
348.000000
30
0.000000
0
VERTEX
8
0
10
1025.000000
20
360.000000
30
0.000000
0
VERTEX
8
0
10
1038.000000
20
370.000000
30
0.000000
0
VERTEX
8
0
10
1056.000000
20
379.000000
30
0.000000
0
VERTEX
8
0
10
1076.000000
20
384.000000
30
0.000000
0
VERTEX
8
0
10
1078.000000
20
386.000000
30
0.000000
0
VERTEX
8
0
10
1079.000000
20
404.000000
30
0.000000
0
VERTEX
8
0
10
1113.000000
20
404.000000
30
0.000000
0
VERTEX
8
0
10
1115.000000
20
402.000000
30
0.000000
0
VERTEX
8
0
10
1115.000000
20
386.000000
30
0.000000
0
VERTEX
8
0
10
1119.000000
20
383.000000
30
0.000000
0
VERTEX
8
0
10
1124.000000
20
383.000000
30
0.000000
0
VERTEX
8
0
10
1137.000000
20
379.000000
30
0.000000
0
VERTEX
8
0
10
1153.000000
20
371.000000
30
0.000000
0
VERTEX
8
0
10
1171.000000
20
357.000000
30
0.000000
0
VERTEX
8
0
10
1184.000000
20
340.000000
30
0.000000
0
VERTEX
8
0
10
1192.000000
20
318.000000
30
0.000000
0
VERTEX
8
0
10
1192.000000
20
71.000000
30
0.000000
0
VERTEX
8
0
10
1194.000000
20
69.000000
30
0.000000
0
VERTEX
8
0
10
1206.000000
20
70.000000
30
0.000000
0
VERTEX
8
0
10
1207.000000
20
519.000000
30
0.000000
0
VERTEX
8
0
10
1204.000000
20
522.000000
30
0.000000
0
VERTEX
8
0
10
1137.000000
20
522.000000
30
0.000000
0
VERTEX
8
0
10
1134.000000
20
520.000000
30
0.000000
0
VERTEX
8
0
10
1133.000000
20
499.000000
30
0.000000
0
VERTEX
8
0
10
1135.000000
20
497.000000
30
0.000000
0
VERTEX
8
0
10
1167.000000
20
496.000000
30
0.000000
0
VERTEX
8
0
10
1168.000000
20
464.000000
30
0.000000
0
VERTEX
8
0
10
1166.000000
20
460.000000
30
0.000000
0
VERTEX
8
0
10
1012.000000
20
460.000000
30
0.000000
0
VERTEX
8
0
10
1010.000000
20
462.000000
30
0.000000
0
VERTEX
8
0
10
1011.000000
20
496.000000
30
0.000000
0
VERTEX
8
0
10
1040.000000
20
496.000000
30
0.000000
0
VERTEX
8
0
10
1042.000000
20
499.000000
30
0.000000
0
VERTEX
8
0
10
1042.000000
20
519.000000
30
0.000000
0
VERTEX
8
0
10
1040.000000
20
522.000000
30
0.000000
0
VERTEX
8
0
10
980.000000
20
521.000000
30
0.000000
0
SEQEND
0
POLYLINE
8
0
6
CONTINUOUS
66
1
10
0.0
20
0.0
30
0.000000
0
VERTEX
8
0
10
555.000000
20
457.000000
30
0.000000
0
VERTEX
8
0
10
628.000000
20
457.000000
30
0.000000
0
VERTEX
8
0
10
629.000000
20
453.000000
30
0.000000
0
VERTEX
8
0
10
599.000000
20
436.000000
30
0.000000
0
VERTEX
8
0
10
579.000000
20
418.000000
30
0.000000
0
VERTEX
8
0
10
568.000000
20
403.000000
30
0.000000
0
VERTEX
8
0
10
561.000000
20
389.000000
30
0.000000
0
VERTEX
8
0
10
557.000000
20
374.000000
30
0.000000
0
VERTEX
8
0
10
557.000000
20
368.000000
30
0.000000
0
VERTEX
8
0
10
555.000000
20
366.000000
30
0.000000
0
VERTEX
8
0
10
553.000000
20
366.000000
30
0.000000
0
VERTEX
8
0
10
552.000000
20
453.000000
30
0.000000
0
VERTEX
8
0
10
555.000000
20
457.000000
30
0.000000
0
SEQEND
0
POLYLINE
8
0
6
CONTINUOUS
66
1
10
0.0
20
0.0
30
0.000000
0
VERTEX
8
0
10
772.000000
20
457.000000
30
0.000000
0
VERTEX
8
0
10
845.000000
20
457.000000
30
0.000000
0
VERTEX
8
0
10
848.000000
20
454.000000
30
0.000000
0
VERTEX
8
0
10
848.000000
20
368.000000
30
0.000000
0
VERTEX
8
0
10
846.000000
20
366.000000
30
0.000000
0
VERTEX
8
0
10
843.000000
20
368.000000
30
0.000000
0
VERTEX
8
0
10
842.000000
20
378.000000
30
0.000000
0
VERTEX
8
0
10
838.000000
20
391.000000
30
0.000000
0
VERTEX
8
0
10
826.000000
20
412.000000
30
0.000000
0
VERTEX
8
0
10
804.000000
20
434.000000
30
0.000000
0
VERTEX
8
0
10
778.000000
20
450.000000
30
0.000000
0
VERTEX
8
0
10
773.000000
20
451.000000
30
0.000000
0
VERTEX
8
0
10
770.000000
20
454.000000
30
0.000000
0
VERTEX
8
0
10
772.000000
20
457.000000
30
0.000000
0
SEQEND
0
POLYLINE
8
0
6
CONTINUOUS
66
1
10
0.0
20
0.0
30
0.000000
0
VERTEX
8
0
10
709.000000
20
453.000000
30
0.000000
0
VERTEX
8
0
10
708.000000
20
454.000000
30
0.000000
0
VERTEX
8
0
10
685.000000
20
454.000000
30
0.000000
0
VERTEX
8
0
10
682.000000
20
451.000000
30
0.000000
0
VERTEX
8
0
10
682.000000
20
398.000000
30
0.000000
0
VERTEX
8
0
10
685.000000
20
396.000000
30
0.000000
0
VERTEX
8
0
10
708.000000
20
396.000000
30
0.000000
0
VERTEX
8
0
10
710.000000
20
398.000000
30
0.000000
0
VERTEX
8
0
10
711.000000
20
440.000000
30
0.000000
0
VERTEX
8
0
10
709.000000
20
453.000000
30
0.000000
0
SEQEND
0
POLYLINE
8
0
6
CONTINUOUS
66
1
10
0.0
20
0.0
30
0.000000
0
VERTEX
8
0
10
615.000000
20
452.000000
30
0.000000
0
VERTEX
8
0
10
614.000000
20
453.000000
30
0.000000
0
VERTEX
8
0
10
557.000000
20
451.000000
30
0.000000
0
VERTEX
8
0
10
557.000000
20
393.000000
30
0.000000
0
VERTEX
8
0
10
559.000000
20
394.000000
30
0.000000
0
VERTEX
8
0
10
566.000000
20
409.000000
30
0.000000
0
VERTEX
8
0
10
578.000000
20
424.000000
30
0.000000
0
VERTEX
8
0
10
591.000000
20
436.000000
30
0.000000
0
VERTEX
8
0
10
614.000000
20
450.000000
30
0.000000
0
VERTEX
8
0
10
615.000000
20
452.000000
30
0.000000
0
SEQEND
0
POLYLINE
8
0
6
CONTINUOUS
66
1
10
0.0
20
0.0
30
0.000000
0
VERTEX
8
0
10
790.000000
20
452.000000
30
0.000000
0
VERTEX
8
0
10
789.000000
20
453.000000
30
0.000000
0
VERTEX
8
0
10
786.000000
20
453.000000
30
0.000000
0
VERTEX
8
0
10
786.000000
20
450.000000
30
0.000000
0
VERTEX
8
0
10
802.000000
20
441.000000
30
0.000000
0
VERTEX
8
0
10
822.000000
20
424.000000
30
0.000000
0
VERTEX
8
0
10
835.000000
20
407.000000
30
0.000000
0
VERTEX
8
0
10
842.000000
20
393.000000
30
0.000000
0
VERTEX
8
0
10
844.000000
20
395.000000
30
0.000000
0
VERTEX
8
0
10
843.000000
20
451.000000
30
0.000000
0
VERTEX
8
0
10
840.000000
20
453.000000
30
0.000000
0
VERTEX
8
0
10
790.000000
20
452.000000
30
0.000000
0
SEQEND
0
POLYLINE
8
0
6
CONTINUOUS
66
1
10
0.0
20
0.0
30
0.000000
0
VERTEX
8
0
10
677.000000
20
435.000000
30
0.000000
0
VERTEX
8
0
10
676.000000
20
436.000000
30
0.000000
0
VERTEX
8
0
10
657.000000
20
432.000000
30
0.000000
0
VERTEX
8
0
10
631.000000
20
421.000000
30
0.000000
0
VERTEX
8
0
10
604.000000
20
400.000000
30
0.000000
0
VERTEX
8
0
10
590.000000
20
382.000000
30
0.000000
0
VERTEX
8
0
10
581.000000
20
362.000000
30
0.000000
0
VERTEX
8
0
10
577.000000
20
344.000000
30
0.000000
0
VERTEX
8
0
10
577.000000
20
70.000000
30
0.000000
0
VERTEX
8
0
10
588.000000
20
70.000000
30
0.000000
0
VERTEX
8
0
10
588.000000
20
343.000000
30
0.000000
0
VERTEX
8
0
10
592.000000
20
360.000000
30
0.000000
0
VERTEX
8
0
10
601.000000
20
378.000000
30
0.000000
0
VERTEX
8
0
10
618.000000
20
398.000000
30
0.000000
0
VERTEX
8
0
10
631.000000
20
408.000000
30
0.000000
0
VERTEX
8
0
10
653.000000
20
419.000000
30
0.000000
0
VERTEX
8
0
10
677.000000
20
425.000000
30
0.000000
0
VERTEX
8
0
10
677.000000
20
435.000000
30
0.000000
0
SEQEND
0
POLYLINE
8
0
6
CONTINUOUS
66
1
10
0.0
20
0.0
30
0.000000
0
VERTEX
8
0
10
719.000000
20
435.000000
30
0.000000
0
VERTEX
8
0
10
717.000000
20
436.000000
30
0.000000
0
VERTEX
8
0
10
715.000000
20
434.000000
30
0.000000
0
VERTEX
8
0
10
716.000000
20
425.000000
30
0.000000
0
VERTEX
8
0
10
731.000000
20
422.000000
30
0.000000
0
VERTEX
8
0
10
745.000000
20
417.000000
30
0.000000
0
VERTEX
8
0
10
769.000000
20
403.000000
30
0.000000
0
VERTEX
8
0
10
791.000000
20
380.000000
30
0.000000
0
VERTEX
8
0
10
802.000000
20
357.000000
30
0.000000
0
VERTEX
8
0
10
805.000000
20
342.000000
30
0.000000
0
VERTEX
8
0
10
805.000000
20
70.000000
30
0.000000
0
VERTEX
8
0
10
816.000000
20
70.000000
30
0.000000
0
VERTEX
8
0
10
816.000000
20
344.000000
30
0.000000
0
VERTEX
8
0
10
813.000000
20
359.000000
30
0.000000
0
VERTEX
8
0
10
801.000000
20
385.000000
30
0.000000
0
VERTEX
8
0
10
792.000000
20
397.000000
30
0.000000
0
VERTEX
8
0
10
778.000000
20
410.000000
30
0.000000
0
VERTEX
8
0
10
764.000000
20
420.000000
30
0.000000
0
VERTEX
8
0
10
742.000000
20
430.000000
30
0.000000
0
VERTEX
8
0
10
724.000000
20
435.000000
30
0.000000
0
VERTEX
8
0
10
719.000000
20
435.000000
30
0.000000
0
SEQEND
0
POLYLINE
8
0
6
CONTINUOUS
66
1
10
0.0
20
0.0
30
0.000000
0
VERTEX
8
0
10
313.000000
20
399.000000
30
0.000000
0
VERTEX
8
0
10
312.000000
20
400.000000
30
0.000000
0
VERTEX
8
0
10
286.000000
20
399.000000
30
0.000000
0
VERTEX
8
0
10
285.000000
20
345.000000
30
0.000000
0
VERTEX
8
0
10
287.000000
20
343.000000
30
0.000000
0
VERTEX
8
0
10
312.000000
20
343.000000
30
0.000000
0
VERTEX
8
0
10
314.000000
20
345.000000
30
0.000000
0
VERTEX
8
0
10
313.000000
20
399.000000
30
0.000000
0
SEQEND
0
POLYLINE
8
0
6
CONTINUOUS
66
1
10
0.0
20
0.0
30
0.000000
0
VERTEX
8
0
10
1110.000000
20
399.000000
30
0.000000
0
VERTEX
8
0
10
1109.000000
20
400.000000
30
0.000000
0
VERTEX
8
0
10
1085.000000
20
400.000000
30
0.000000
0
VERTEX
8
0
10
1082.000000
20
398.000000
30
0.000000
0
VERTEX
8
0
10
1082.000000
20
345.000000
30
0.000000
0
VERTEX
8
0
10
1084.000000
20
343.000000
30
0.000000
0
VERTEX
8
0
10
1109.000000
20
343.000000
30
0.000000
0
VERTEX
8
0
10
1111.000000
20
345.000000
30
0.000000
0
VERTEX
8
0
10
1110.000000
20
399.000000
30
0.000000
0
SEQEND
0
POLYLINE
8
0
6
CONTINUOUS
66
1
10
0.0
20
0.0
30
0.000000
0
VERTEX
8
0
10
324.000000
20
379.000000
30
0.000000
0
VERTEX
8
0
10
323.000000
20
380.000000
30
0.000000
0
VERTEX
8
0
10
318.000000
20
379.000000
30
0.000000
0
VERTEX
8
0
10
318.000000
20
370.000000
30
0.000000
0
VERTEX
8
0
10
347.000000
20
360.000000
30
0.000000
0
VERTEX
8
0
10
360.000000
20
351.000000
30
0.000000
0
VERTEX
8
0
10
375.000000
20
334.000000
30
0.000000
0
VERTEX
8
0
10
381.000000
20
320.000000
30
0.000000
0
VERTEX
8
0
10
383.000000
20
310.000000
30
0.000000
0
VERTEX
8
0
10
383.000000
20
70.000000
30
0.000000
0
VERTEX
8
0
10
394.000000
20
70.000000
30
0.000000
0
VERTEX
8
0
10
394.000000
20
312.000000
30
0.000000
0
VERTEX
8
0
10
389.000000
20
332.000000
30
0.000000
0
VERTEX
8
0
10
381.000000
20
345.000000
30
0.000000
0
VERTEX
8
0
10
368.000000
20
359.000000
30
0.000000
0
VERTEX
8
0
10
355.000000
20
368.000000
30
0.000000
0
VERTEX
8
0
10
343.000000
20
374.000000
30
0.000000
0
VERTEX
8
0
10
324.000000
20
379.000000
30
0.000000
0
SEQEND
0
POLYLINE
8
0
6
CONTINUOUS
66
1
10
0.0
20
0.0
30
0.000000
0
VERTEX
8
0
10
1077.000000
20
379.000000
30
0.000000
0
VERTEX
8
0
10
1076.000000
20
380.000000
30
0.000000
0
VERTEX
8
0
10
1058.000000
20
375.000000
30
0.000000
0
VERTEX
8
0
10
1047.000000
20
370.000000
30
0.000000
0
VERTEX
8
0
10
1032.000000
20
360.000000
30
0.000000
0
VERTEX
8
0
10
1014.000000
20
340.000000
30
0.000000
0
VERTEX
8
0
10
1006.000000
20
321.000000
30
0.000000
0
VERTEX
8
0
10
1004.000000
20
309.000000
30
0.000000
0
VERTEX
8
0
10
1004.000000
20
71.000000
30
0.000000
0
VERTEX
8
0
10
1006.000000
20
69.000000
30
0.000000
0
VERTEX
8
0
10
1014.000000
20
69.000000
30
0.000000
0
VERTEX
8
0
10
1016.000000
20
71.000000
30
0.000000
0
VERTEX
8
0
10
1016.000000
20
314.000000
30
0.000000
0
VERTEX
8
0
10
1022.000000
20
331.000000
30
0.000000
0
VERTEX
8
0
10
1033.000000
20
346.000000
30
0.000000
0
VERTEX
8
0
10
1052.000000
20
360.000000
30
0.000000
0
VERTEX
8
0
10
1063.000000
20
365.000000
30
0.000000
0
VERTEX
8
0
10
1076.000000
20
368.000000
30
0.000000
0
VERTEX
8
0
10
1078.000000
20
371.000000
30
0.000000
0
VERTEX
8
0
10
1077.000000
20
379.000000
30
0.000000
0
SEQEND
0
POLYLINE
8
0
6
CONTINUOUS
66
1
10
0.0
20
0.0
30
0.000000
0
VERTEX
8
0
10
1118.000000
20
379.000000
30
0.000000
0
VERTEX
8
0
10
1116.000000
20
380.000000
30
0.000000
0
VERTEX
8
0
10
1115.000000
20
370.000000
30
0.000000
0
VERTEX
8
0
10
1117.000000
20
368.000000
30
0.000000
0
VERTEX
8
0
10
1141.000000
20
360.000000
30
0.000000
0
VERTEX
8
0
10
1154.000000
20
351.000000
30
0.000000
0
VERTEX
8
0
10
1164.000000
20
341.000000
30
0.000000
0
VERTEX
8
0
10
1172.000000
20
328.000000
30
0.000000
0
VERTEX
8
0
10
1177.000000
20
313.000000
30
0.000000
0
VERTEX
8
0
10
1177.000000
20
70.000000
30
0.000000
0
VERTEX
8
0
10
1188.000000
20
70.000000
30
0.000000
0
VERTEX
8
0
10
1187.000000
20
320.000000
30
0.000000
0
VERTEX
8
0
10
1180.000000
20
338.000000
30
0.000000
0
VERTEX
8
0
10
1171.000000
20
350.000000
30
0.000000
0
VERTEX
8
0
10
1162.000000
20
359.000000
30
0.000000
0
VERTEX
8
0
10
1151.000000
20
367.000000
30
0.000000
0
VERTEX
8
0
10
1137.000000
20
374.000000
30
0.000000
0
VERTEX
8
0
10
1118.000000
20
379.000000
30
0.000000
0
SEQEND
0
POLYLINE
8
0
6
CONTINUOUS
66
1
10
0.0
20
0.0
30
0.000000
0
VERTEX
8
0
10
281.000000
20
378.000000
30
0.000000
0
VERTEX
8
0
10
280.000000
20
379.000000
30
0.000000
0
VERTEX
8
0
10
255.000000
20
371.000000
30
0.000000
0
VERTEX
8
0
10
238.000000
20
360.000000
30
0.000000
0
VERTEX
8
0
10
222.000000
20
343.000000
30
0.000000
0
VERTEX
8
0
10
214.000000
20
327.000000
30
0.000000
0
VERTEX
8
0
10
211.000000
20
315.000000
30
0.000000
0
VERTEX
8
0
10
211.000000
20
70.000000
30
0.000000
0
VERTEX
8
0
10
220.000000
20
69.000000
30
0.000000
0
VERTEX
8
0
10
222.000000
20
71.000000
30
0.000000
0
VERTEX
8
0
10
222.000000
20
314.000000
30
0.000000
0
VERTEX
8
0
10
226.000000
20
327.000000
30
0.000000
0
VERTEX
8
0
10
233.000000
20
339.000000
30
0.000000
0
VERTEX
8
0
10
246.000000
20
352.000000
30
0.000000
0
VERTEX
8
0
10
258.000000
20
360.000000
30
0.000000
0
VERTEX
8
0
10
279.000000
20
367.000000
30
0.000000
0
VERTEX
8
0
10
281.000000
20
369.000000
30
0.000000
0
VERTEX
8
0
10
281.000000
20
378.000000
30
0.000000
0
SEQEND
0
POLYLINE
8
0
6
CONTINUOUS
66
1
10
0.0
20
0.0
30
0.000000
0
VERTEX
8
0
10
104.000000
20
137.000000
30
0.000000
0
VERTEX
8
0
10
103.000000
20
138.000000
30
0.000000
0
VERTEX
8
0
10
81.000000
20
138.000000
30
0.000000
0
VERTEX
8
0
10
78.000000
20
133.000000
30
0.000000
0
VERTEX
8
0
10
80.000000
20
130.000000
30
0.000000
0
VERTEX
8
0
10
103.000000
20
130.000000
30
0.000000
0
VERTEX
8
0
10
105.000000
20
132.000000
30
0.000000
0
VERTEX
8
0
10
104.000000
20
137.000000
30
0.000000
0
SEQEND
0
POLYLINE
8
0
6
CONTINUOUS
66
1
10
0.0
20
0.0
30
0.000000
0
VERTEX
8
0
10
164.000000
20
137.000000
30
0.000000
0
VERTEX
8
0
10
163.000000
20
138.000000
30
0.000000
0
VERTEX
8
0
10
141.000000
20
138.000000
30
0.000000
0
VERTEX
8
0
10
139.000000
20
136.000000
30
0.000000
0
VERTEX
8
0
10
139.000000
20
132.000000
30
0.000000
0
VERTEX
8
0
10
141.000000
20
130.000000
30
0.000000
0
VERTEX
8
0
10
162.000000
20
129.000000
30
0.000000
0
VERTEX
8
0
10
165.000000
20
132.000000
30
0.000000
0
VERTEX
8
0
10
164.000000
20
137.000000
30
0.000000
0
SEQEND
0
POLYLINE
8
0
6
CONTINUOUS
66
1
10
0.0
20
0.0
30
0.000000
0
VERTEX
8
0
10
468.000000
20
137.000000
30
0.000000
0
VERTEX
8
0
10
467.000000
20
138.000000
30
0.000000
0
VERTEX
8
0
10
445.000000
20
138.000000
30
0.000000
0
VERTEX
8
0
10
443.000000
20
135.000000
30
0.000000
0
VERTEX
8
0
10
443.000000
20
132.000000
30
0.000000
0
VERTEX
8
0
10
445.000000
20
130.000000
30
0.000000
0
VERTEX
8
0
10
466.000000
20
129.000000
30
0.000000
0
VERTEX
8
0
10
469.000000
20
132.000000
30
0.000000
0
VERTEX
8
0
10
468.000000
20
137.000000
30
0.000000
0
SEQEND
0
POLYLINE
8
0
6
CONTINUOUS
66
1
10
0.0
20
0.0
30
0.000000
0
VERTEX
8
0
10
529.000000
20
137.000000
30
0.000000
0
VERTEX
8
0
10
528.000000
20
138.000000
30
0.000000
0
VERTEX
8
0
10
506.000000
20
138.000000
30
0.000000
0
VERTEX
8
0
10
503.000000
20
132.000000
30
0.000000
0
VERTEX
8
0
10
505.000000
20
130.000000
30
0.000000
0
VERTEX
8
0
10
528.000000
20
130.000000
30
0.000000
0
VERTEX
8
0
10
529.000000
20
137.000000
30
0.000000
0
SEQEND
0
POLYLINE
8
0
6
CONTINUOUS
66
1
10
0.0
20
0.0
30
0.000000
0
VERTEX
8
0
10
890.000000
20
137.000000
30
0.000000
0
VERTEX
8
0
10
889.000000
20
138.000000
30
0.000000
0
VERTEX
8
0
10
867.000000
20
138.000000
30
0.000000
0
VERTEX
8
0
10
865.000000
20
136.000000
30
0.000000
0
VERTEX
8
0
10
866.000000
20
130.000000
30
0.000000
0
VERTEX
8
0
10
889.000000
20
130.000000
30
0.000000
0
VERTEX
8
0
10
891.000000
20
132.000000
30
0.000000
0
VERTEX
8
0
10
890.000000
20
137.000000
30
0.000000
0
SEQEND
0
POLYLINE
8
0
6
CONTINUOUS
66
1
10
0.0
20
0.0
30
0.000000
0
VERTEX
8
0
10
950.000000
20
137.000000
30
0.000000
0
VERTEX
8
0
10
949.000000
20
138.000000
30
0.000000
0
VERTEX
8
0
10
926.000000
20
138.000000
30
0.000000
0
VERTEX
8
0
10
926.000000
20
130.000000
30
0.000000
0
VERTEX
8
0
10
949.000000
20
130.000000
30
0.000000
0
VERTEX
8
0
10
951.000000
20
132.000000
30
0.000000
0
VERTEX
8
0
10
950.000000
20
137.000000
30
0.000000
0
SEQEND
0
POLYLINE
8
0
6
CONTINUOUS
66
1
10
0.0
20
0.0
30
0.000000
0
VERTEX
8
0
10
1254.000000
20
137.000000
30
0.000000
0
VERTEX
8
0
10
1253.000000
20
138.000000
30
0.000000
0
VERTEX
8
0
10
1230.000000
20
138.000000
30
0.000000
0
VERTEX
8
0
10
1230.000000
20
130.000000
30
0.000000
0
VERTEX
8
0
10
1252.000000
20
129.000000
30
0.000000
0
VERTEX
8
0
10
1256.000000
20
133.000000
30
0.000000
0
VERTEX
8
0
10
1254.000000
20
137.000000
30
0.000000
0
SEQEND
0
POLYLINE
8
0
6
CONTINUOUS
66
1
10
0.0
20
0.0
30
0.000000
0
VERTEX
8
0
10
1315.000000
20
137.000000
30
0.000000
0
VERTEX
8
0
10
1314.000000
20
138.000000
30
0.000000
0
VERTEX
8
0
10
1292.000000
20
138.000000
30
0.000000
0
VERTEX
8
0
10
1290.000000
20
136.000000
30
0.000000
0
VERTEX
8
0
10
1291.000000
20
130.000000
30
0.000000
0
VERTEX
8
0
10
1313.000000
20
129.000000
30
0.000000
0
VERTEX
8
0
10
1316.000000
20
132.000000
30
0.000000
0
VERTEX
8
0
10
1315.000000
20
137.000000
30
0.000000
0
SEQEND
0
POLYLINE
8
0
6
CONTINUOUS
66
1
10
0.0
20
0.0
30
0.000000
0
VERTEX
8
0
10
110.000000
20
125.000000
30
0.000000
0
VERTEX
8
0
10
109.000000
20
126.000000
30
0.000000
0
VERTEX
8
0
10
74.000000
20
126.000000
30
0.000000
0
VERTEX
8
0
10
72.000000
20
123.000000
30
0.000000
0
VERTEX
8
0
10
72.000000
20
118.000000
30
0.000000
0
VERTEX
8
0
10
75.000000
20
116.000000
30
0.000000
0
VERTEX
8
0
10
109.000000
20
116.000000
30
0.000000
0
VERTEX
8
0
10
111.000000
20
118.000000
30
0.000000
0
VERTEX
8
0
10
110.000000
20
125.000000
30
0.000000
0
SEQEND
0
POLYLINE
8
0
6
CONTINUOUS
66
1
10
0.0
20
0.0
30
0.000000
0
VERTEX
8
0
10
171.000000
20
125.000000
30
0.000000
0
VERTEX
8
0
10
170.000000
20
126.000000
30
0.000000
0
VERTEX
8
0
10
134.000000
20
126.000000
30
0.000000
0
VERTEX
8
0
10
132.000000
20
123.000000
30
0.000000
0
VERTEX
8
0
10
132.000000
20
119.000000
30
0.000000
0
VERTEX
8
0
10
135.000000
20
116.000000
30
0.000000
0
VERTEX
8
0
10
170.000000
20
116.000000
30
0.000000
0
VERTEX
8
0
10
172.000000
20
118.000000
30
0.000000
0
VERTEX
8
0
10
171.000000
20
125.000000
30
0.000000
0
SEQEND
0
POLYLINE
8
0
6
CONTINUOUS
66
1
10
0.0
20
0.0
30
0.000000
0
VERTEX
8
0
10
475.000000
20
125.000000
30
0.000000
0
VERTEX
8
0
10
474.000000
20
126.000000
30
0.000000
0
VERTEX
8
0
10
438.000000
20
126.000000
30
0.000000
0
VERTEX
8
0
10
436.000000
20
124.000000
30
0.000000
0
VERTEX
8
0
10
436.000000
20
118.000000
30
0.000000
0
VERTEX
8
0
10
439.000000
20
116.000000
30
0.000000
0
VERTEX
8
0
10
474.000000
20
116.000000
30
0.000000
0
VERTEX
8
0
10
476.000000
20
119.000000
30
0.000000
0
VERTEX
8
0
10
475.000000
20
125.000000
30
0.000000
0
SEQEND
0
POLYLINE
8
0
6
CONTINUOUS
66
1
10
0.0
20
0.0
30
0.000000
0
VERTEX
8
0
10
535.000000
20
125.000000
30
0.000000
0
VERTEX
8
0
10
534.000000
20
126.000000
30
0.000000
0
VERTEX
8
0
10
499.000000
20
126.000000
30
0.000000
0
VERTEX
8
0
10
497.000000
20
124.000000
30
0.000000
0
VERTEX
8
0
10
497.000000
20
118.000000
30
0.000000
0
VERTEX
8
0
10
499.000000
20
116.000000
30
0.000000
0
VERTEX
8
0
10
534.000000
20
116.000000
30
0.000000
0
VERTEX
8
0
10
536.000000
20
118.000000
30
0.000000
0
VERTEX
8
0
10
535.000000
20
125.000000
30
0.000000
0
SEQEND
0
POLYLINE
8
0
6
CONTINUOUS
66
1
10
0.0
20
0.0
30
0.000000
0
VERTEX
8
0
10
896.000000
20
125.000000
30
0.000000
0
VERTEX
8
0
10
895.000000
20
126.000000
30
0.000000
0
VERTEX
8
0
10
860.000000
20
126.000000
30
0.000000
0
VERTEX
8
0
10
858.000000
20
124.000000
30
0.000000
0
VERTEX
8
0
10
858.000000
20
118.000000
30
0.000000
0
VERTEX
8
0
10
860.000000
20
116.000000
30
0.000000
0
VERTEX
8
0
10
895.000000
20
116.000000
30
0.000000
0
VERTEX
8
0
10
897.000000
20
118.000000
30
0.000000
0
VERTEX
8
0
10
896.000000
20
125.000000
30
0.000000
0
SEQEND
0
POLYLINE
8
0
6
CONTINUOUS
66
1
10
0.0
20
0.0
30
0.000000
0
VERTEX
8
0
10
957.000000
20
125.000000
30
0.000000
0
VERTEX
8
0
10
956.000000
20
126.000000
30
0.000000
0
VERTEX
8
0
10
920.000000
20
126.000000
30
0.000000
0
VERTEX
8
0
10
918.000000
20
124.000000
30
0.000000
0
VERTEX
8
0
10
918.000000
20
118.000000
30
0.000000
0
VERTEX
8
0
10
921.000000
20
116.000000
30
0.000000
0
VERTEX
8
0
10
956.000000
20
116.000000
30
0.000000
0
VERTEX
8
0
10
958.000000
20
119.000000
30
0.000000
0
VERTEX
8
0
10
957.000000
20
125.000000
30
0.000000
0
SEQEND
0
POLYLINE
8
0
6
CONTINUOUS
66
1
10
0.0
20
0.0
30
0.000000
0
VERTEX
8
0
10
1261.000000
20
125.000000
30
0.000000
0
VERTEX
8
0
10
1260.000000
20
126.000000
30
0.000000
0
VERTEX
8
0
10
1225.000000
20
126.000000
30
0.000000
0
VERTEX
8
0
10
1222.000000
20
121.000000
30
0.000000
0
VERTEX
8
0
10
1225.000000
20
116.000000
30
0.000000
0
VERTEX
8
0
10
1260.000000
20
116.000000
30
0.000000
0
VERTEX
8
0
10
1262.000000
20
119.000000
30
0.000000
0
VERTEX
8
0
10
1261.000000
20
125.000000
30
0.000000
0
SEQEND
0
POLYLINE
8
0
6
CONTINUOUS
66
1
10
0.0
20
0.0
30
0.000000
0
VERTEX
8
0
10
1322.000000
20
125.000000
30
0.000000
0
VERTEX
8
0
10
1321.000000
20
126.000000
30
0.000000
0
VERTEX
8
0
10
1285.000000
20
126.000000
30
0.000000
0
VERTEX
8
0
10
1283.000000
20
123.000000
30
0.000000
0
VERTEX
8
0
10
1283.000000
20
118.000000
30
0.000000
0
VERTEX
8
0
10
1286.000000
20
116.000000
30
0.000000
0
VERTEX
8
0
10
1320.000000
20
116.000000
30
0.000000
0
VERTEX
8
0
10
1323.000000
20
120.000000
30
0.000000
0
VERTEX
8
0
10
1322.000000
20
125.000000
30
0.000000
0
SEQEND
0
POLYLINE
8
0
6
CONTINUOUS
66
1
10
0.0
20
0.0
30
0.000000
0
VERTEX
8
0
10
80.000000
20
112.000000
30
0.000000
0
VERTEX
8
0
10
79.000000
20
113.000000
30
0.000000
0
VERTEX
8
0
10
63.000000
20
113.000000
30
0.000000
0
VERTEX
8
0
10
60.000000
20
110.000000
30
0.000000
0
VERTEX
8
0
10
60.000000
20
71.000000
30
0.000000
0
VERTEX
8
0
10
62.000000
20
69.000000
30
0.000000
0
VERTEX
8
0
10
184.000000
20
70.000000
30
0.000000
0
VERTEX
8
0
10
184.000000
20
111.000000
30
0.000000
0
VERTEX
8
0
10
182.000000
20
113.000000
30
0.000000
0
VERTEX
8
0
10
80.000000
20
112.000000
30
0.000000
0
SEQEND
0
POLYLINE
8
0
6
CONTINUOUS
66
1
10
0.0
20
0.0
30
0.000000
0
VERTEX
8
0
10
441.000000
20
112.000000
30
0.000000
0
VERTEX
8
0
10
440.000000
20
113.000000
30
0.000000
0
VERTEX
8
0
10
427.000000
20
113.000000
30
0.000000
0
VERTEX
8
0
10
424.000000
20
110.000000
30
0.000000
0
VERTEX
8
0
10
425.000000
20
69.000000
30
0.000000
0
VERTEX
8
0
10
548.000000
20
70.000000
30
0.000000
0
VERTEX
8
0
10
548.000000
20
111.000000
30
0.000000
0
VERTEX
8
0
10
546.000000
20
113.000000
30
0.000000
0
VERTEX
8
0
10
441.000000
20
112.000000
30
0.000000
0
SEQEND
0
POLYLINE
8
0
6
CONTINUOUS
66
1
10
0.0
20
0.0
30
0.000000
0
VERTEX
8
0
10
863.000000
20
112.000000
30
0.000000
0
VERTEX
8
0
10
862.000000
20
113.000000
30
0.000000
0
VERTEX
8
0
10
848.000000
20
113.000000
30
0.000000
0
VERTEX
8
0
10
846.000000
20
111.000000
30
0.000000
0
VERTEX
8
0
10
847.000000
20
69.000000
30
0.000000
0
VERTEX
8
0
10
968.000000
20
69.000000
30
0.000000
0
VERTEX
8
0
10
970.000000
20
71.000000
30
0.000000
0
VERTEX
8
0
10
970.000000
20
110.000000
30
0.000000
0
VERTEX
8
0
10
968.000000
20
113.000000
30
0.000000
0
VERTEX
8
0
10
863.000000
20
112.000000
30
0.000000
0
SEQEND
0
POLYLINE
8
0
6
CONTINUOUS
66
1
10
0.0
20
0.0
30
0.000000
0
VERTEX
8
0
10
1240.000000
20
112.000000
30
0.000000
0
VERTEX
8
0
10
1239.000000
20
113.000000
30
0.000000
0
VERTEX
8
0
10
1213.000000
20
113.000000
30
0.000000
0
VERTEX
8
0
10
1210.000000
20
111.000000
30
0.000000
0
VERTEX
8
0
10
1211.000000
20
69.000000
30
0.000000
0
VERTEX
8
0
10
1333.000000
20
69.000000
30
0.000000
0
VERTEX
8
0
10
1335.000000
20
71.000000
30
0.000000
0
VERTEX
8
0
10
1335.000000
20
110.000000
30
0.000000
0
VERTEX
8
0
10
1332.000000
20
113.000000
30
0.000000
0
VERTEX
8
0
10
1240.000000
20
112.000000
30
0.000000
0
SEQEND
0
ENDSEC
0
EOF
